<mxfile host="app.diagrams.net" modified="2024-06-07T06:37:10.337Z" agent="Mozilla/5.0 (Macintosh; Intel Mac OS X 10_15_7) AppleWebKit/537.36 (KHTML, like Gecko) Chrome/125.0.0.0 Safari/537.36" etag="Q35_EZm5bcOoZNCSBhim" version="24.5.1" type="google" pages="2">
  <diagram id="C5RBs43oDa-KdzZeNtuy" name="試験概要">
    <mxGraphModel dx="1242" dy="785" grid="1" gridSize="10" guides="1" tooltips="1" connect="1" arrows="1" fold="1" page="1" pageScale="1" pageWidth="827" pageHeight="1169" math="0" shadow="0">
      <root>
        <mxCell id="WIyWlLk6GJQsqaUBKTNV-0" />
        <mxCell id="WIyWlLk6GJQsqaUBKTNV-1" parent="WIyWlLk6GJQsqaUBKTNV-0" />
        <mxCell id="aGybI54biNBIFPuGLW5Z-0" value="&lt;h1 style=&quot;margin-top: 0px;&quot;&gt;試験概要&lt;/h1&gt;&lt;div&gt;回答時間: 30分&lt;/div&gt;&lt;div&gt;質疑応答: 15分&lt;/div&gt;&lt;div&gt;&lt;br&gt;&lt;/div&gt;&lt;div&gt;&lt;b&gt;内容:&lt;/b&gt;&lt;/div&gt;&lt;div&gt;以下手順に沿って、「タイムピッカー」コンポーネントを実装をしてください&lt;/div&gt;&lt;div&gt;&lt;span style=&quot;background-color: initial;&quot;&gt;&lt;br&gt;&lt;/span&gt;&lt;/div&gt;&lt;div&gt;&lt;span style=&quot;background-color: initial;&quot;&gt;1: 資料を元に、コンポーネントの仕様を整理する&lt;/span&gt;&lt;/div&gt;&lt;div&gt;&lt;span style=&quot;background-color: initial;&quot;&gt;&amp;nbsp; &amp;nbsp; - 試験官をプロダクトオーナーと仮定して、適宜質問を投げつつ、仕様固めを行なってください&lt;br&gt;&lt;/span&gt;&amp;nbsp; &amp;nbsp; &amp;nbsp; &amp;nbsp; - UXを考慮して、扱いやすいコンポーネントとなるように仕様を検討してください&lt;/div&gt;&lt;div&gt;&amp;nbsp; &amp;nbsp; &amp;nbsp; &amp;nbsp; - 追加の機能を提案するのもOKです&lt;/div&gt;&lt;div&gt;&lt;br&gt;&lt;/div&gt;&lt;div&gt;&lt;span style=&quot;background-color: initial;&quot;&gt;&amp;nbsp; &amp;nbsp; - 仕様の整理は、このdrawioの「仕様整理」のシートに記載してください&lt;/span&gt;&lt;/div&gt;&lt;div&gt;&lt;span style=&quot;background-color: initial;&quot;&gt;&amp;nbsp; &amp;nbsp; &amp;nbsp; &amp;nbsp; - フォーマットに指定はありません&lt;/span&gt;&lt;/div&gt;&lt;div&gt;&amp;nbsp; &amp;nbsp; &amp;nbsp; &amp;nbsp; - 内容が読み取れればOKで、綺麗にまとめている必要はありません&lt;span style=&quot;background-color: initial;&quot;&gt;&lt;br&gt;&lt;/span&gt;&lt;/div&gt;&lt;div&gt;&lt;br&gt;&lt;/div&gt;&lt;div&gt;2: Stackblitz上に実装をする&lt;/div&gt;&lt;div&gt;&amp;nbsp; &amp;nbsp; - 提供されたstackblitzページ上で、タイムピッカーコンポーネントの実装を行なってください&lt;/div&gt;&lt;div&gt;&amp;nbsp; &amp;nbsp; - 時間が足りない場合、モック実装をして、処理の内容をコメントで残すなどでもOKです&lt;/div&gt;&lt;div&gt;&lt;br&gt;&lt;/div&gt;&lt;div&gt;&lt;br&gt;&lt;/div&gt;&lt;div&gt;&lt;br&gt;&lt;/div&gt;&lt;div&gt;&lt;b&gt;補足:&lt;/b&gt;&lt;/div&gt;&lt;div&gt;- 生成AIツールの利用はOKです&lt;/div&gt;" style="text;html=1;whiteSpace=wrap;overflow=hidden;rounded=0;fillColor=#f5f5f5;fontColor=#333333;strokeColor=#666666;" parent="WIyWlLk6GJQsqaUBKTNV-1" vertex="1">
          <mxGeometry x="80" y="80" width="560" height="450" as="geometry" />
        </mxCell>
      </root>
    </mxGraphModel>
  </diagram>
  <diagram id="DL-vXDK1-uYY52iAVz6u" name="仕様整理">
    <mxGraphModel dx="1656" dy="1047" grid="1" gridSize="10" guides="1" tooltips="1" connect="1" arrows="1" fold="1" page="1" pageScale="1" pageWidth="827" pageHeight="1169" math="0" shadow="0">
      <root>
        <mxCell id="0" />
        <mxCell id="1" parent="0" />
        <mxCell id="yjNWj8RgQ7WTDaPsMSxr-6" value="&lt;h1 style=&quot;margin-top: 0px;&quot;&gt;&lt;font style=&quot;font-size: 16px;&quot;&gt;概要&lt;/font&gt;&lt;/h1&gt;&lt;div&gt;&lt;span style=&quot;&quot;&gt;1: このコンポーネントは、ユーザーが時刻を入力するための機能を提供します&lt;/span&gt;&lt;/div&gt;&lt;div&gt;&lt;span style=&quot;&quot;&gt;&lt;br&gt;&lt;/span&gt;&lt;/div&gt;&lt;div&gt;以上&lt;/div&gt;" style="text;html=1;whiteSpace=wrap;overflow=hidden;rounded=0;fillColor=#f5f5f5;fontColor=#333333;strokeColor=#666666;" vertex="1" parent="1">
          <mxGeometry x="40" y="200" width="520" height="180" as="geometry" />
        </mxCell>
        <mxCell id="fFetwOCJLS78FMropyRP-1" value="&lt;h1 style=&quot;margin-top: 0px;&quot;&gt;仕様メモ&lt;/h1&gt;&lt;div&gt;&lt;br&gt;&lt;/div&gt;&lt;div&gt;1: blah blah&lt;/div&gt;&lt;div&gt;&lt;br&gt;&lt;/div&gt;&lt;div&gt;2:&amp;nbsp;&lt;/div&gt;" style="text;html=1;whiteSpace=wrap;overflow=hidden;rounded=0;fillColor=#f5f5f5;fontColor=#333333;strokeColor=#666666;" parent="1" vertex="1">
          <mxGeometry x="720" y="200" width="470" height="400" as="geometry" />
        </mxCell>
        <mxCell id="yjNWj8RgQ7WTDaPsMSxr-1" value="" style="shape=image;verticalLabelPosition=bottom;labelBackgroundColor=default;verticalAlign=top;aspect=fixed;imageAspect=0;image=data:image/png,iVBORw0KGgoAAAANSUhEUgAAAT4AAACUCAYAAAAKyEUMAAAMPmlDQ1BJQ0MgUHJvZmlsZQAASImVVwdYU8kWnluSkEBCCSAgJfQmiEgJICWEFkB6txGSAKHEGAgqdmRRwbWgYgEbuiqi2Gl2xM6i2PtiQUFZFwt25U0K6LqvfG/yzcyff87858y5c8sAoH6CKxbnoBoA5IryJTHB/oyk5BQGqRsQAA3+TIAll5cnZkVFhQNYBvu/l3c3ACLrrzrItP45/l+LJl+QxwMAiYI4jZ/Hy4X4IAB4FU8syQeAKOPNp+aLZRhWoC2BAUK8UIYzFLhKhtMUeK/cJi6GDXErACpqXK4kAwDaZcgzCngZUIPWB7GTiC8UAaDOgNgnN3cyH+JUiG2gjRhimT4z7QedjL9ppg1pcrkZQ1ixFnlRCRDmiXO40//PdPzvkpsjHfRhBatapiQkRrZmmLdb2ZPDZFgN4l5RWkQkxFoQfxDy5fYQo5RMaUi8wh415OWxYc6ALsROfG5AGMSGEAeJciLClXxaujCIAzHcIeg0YT4nDmI9iBcK8gJjlTabJJNjlL7Q+nQJm6Xkz3Elcr8yXw+k2fEspf7rTAFHqY/RCjPjEiGmQGxRIEyIgJgGsWNedmyY0mZMYSY7YtBGIo2RxW8BcYxAFOyv0McK0iVBMUr70ty8wfVimzKFnAgl3p+fGReiyA/WyuPK44drwS4LRKz4QR1BXlL44Fr4goBAxdqxboEoPlap80Gc7x+jmItTxDlRSnvcTJATLOPNIHbJK4hVzsUT8uGGVOjj6eL8qDhFnHhhFjc0ShEPvgyEAzYIAAwghTUNTAZZQNje29AL/ylGggAXSEAGEAAHJTM4I1E+IoJtLCgEf0IkAHlD8/zlowJQAPmvQ6yidQDp8tEC+Yxs8BTiXBAGcuB/qXyWaMhbAngCGeE/vHNh5cF4c2CVjf97fpD9zrAgE65kpIMeGeqDlsRAYgAxhBhEtMUNcB/cCw+HrR+szjgT9xhcx3d7wlNCB+ER4Tqhk3B7krBI8lOUY0En1A9S5iLtx1zgVlDTFffHvaE6VMZ1cQPggLtAPyzcF3p2hSxbGbcsK4yftP+2gh+uhtKO7ERGycPIfmSbn2fS7GiuQyqyXP+YH0WsaUP5Zg+N/Oyf/UP2+bAP+9kSW4gdwM5iJ7Hz2BGsATCw41gj1oYdleGh3fVEvrsGvcXI48mGOsJ/+Bu8srJM5jnVOvU4fVGM5QumyZ7RgD1ZPF0izMjMZ7DgG0HA4Ih4jiMYzk7OLgDI3i+Kx9ebaPl7A9Ft+87N/wMA7+MDAwOHv3OhxwHY5w5v/6bvnA0TvjpUATjXxJNKChQcLmsI8CmhDu80fWAMzIENXI8zcANewA8EglAQCeJAMpgIo8+E+1wCpoKZYB4oAWVgGVgF1oGNYAvYAXaD/aABHAEnwRlwEVwG18FduHu6wAvQB96BzwiCkBAqQkf0ERPEErFHnBEm4oMEIuFIDJKMpCIZiAiRIjOR+UgZUo6sQzYjNcg+pAk5iZxHOpDbyEOkB3mNfEIxVA3VRo1QK3QkykRZaBgah05AM9ApaCFajC5B16DV6C60Hj2JXkSvo53oC7QfA5gqpouZYg4YE2NjkVgKlo5JsNlYKVaBVWN1WDO8zlexTqwX+4gTcTrOwB3gDg7B43EePgWfjS/G1+E78Hq8Fb+KP8T78G8EKsGQYE/wJHAISYQMwlRCCaGCsI1wiHAa3ktdhHdEIlGXaE10h/diMjGLOIO4mLieuId4gthBfEzsJ5FI+iR7kjcpksQl5ZNKSGtJu0jHSVdIXaQPKqoqJirOKkEqKSoilSKVCpWdKsdUrqg8U/lM1iBbkj3JkWQ+eTp5KXkruZl8idxF/kzRpFhTvClxlCzKPMoaSh3lNOUe5Y2qqqqZqodqtKpQda7qGtW9qudUH6p+VNNSs1Njq41Xk6otUduudkLtttobKpVqRfWjplDzqUuoNdRT1AfUDzQ6zZHGofFpc2iVtHraFdpLdbK6pTpLfaJ6oXqF+gH1S+q9GmQNKw22BldjtkalRpPGTY1+TbrmKM1IzVzNxZo7Nc9rdmuRtKy0ArX4WsVaW7ROaT2mY3RzOpvOo8+nb6WfpndpE7WttTnaWdpl2ru127X7dLR0XHQSdKbpVOoc1enUxXStdDm6ObpLdffr3tD9NMxoGGuYYNiiYXXDrgx7rzdcz09PoFeqt0fvut4nfYZ+oH62/nL9Bv37BriBnUG0wVSDDQanDXqHaw/3Gs4bXjp8//A7hqihnWGM4QzDLYZthv1GxkbBRmKjtUanjHqNdY39jLOMVxofM+4xoZv4mAhNVpocN3nO0GGwGDmMNYxWRp+poWmIqdR0s2m76Wcza7N4syKzPWb3zSnmTPN085XmLeZ9FiYWYy1mWtRa3LEkWzItMy1XW561fG9lbZVotcCqwarbWs+aY11oXWt9z4Zq42szxaba5pot0ZZpm2273vayHWrnapdpV2l3yR61d7MX2q+37xhBGOExQjSiesRNBzUHlkOBQ63DQ0ddx3DHIscGx5cjLUamjFw+8uzIb06uTjlOW53ujtIaFTqqaFTzqNfOds4850rna6Opo4NGzxndOPqVi72LwGWDyy1XuutY1wWuLa5f3dzdJG51bj3uFu6p7lXuN5nazCjmYuY5D4KHv8ccjyMeHz3dPPM993v+5eXgle2106t7jPUYwZitYx57m3lzvTd7d/owfFJ9Nvl0+pr6cn2rfR/5mfvx/bb5PWPZsrJYu1gv/Z38Jf6H/N+zPdmz2CcCsIDggNKA9kCtwPjAdYEPgsyCMoJqg/qCXYNnBJ8IIYSEhSwPuckx4vA4NZy+UPfQWaGtYWphsWHrwh6F24VLwpvHomNDx64Yey/CMkIU0RAJIjmRKyLvR1lHTYk6HE2MjoqujH4aMypmZszZWHrspNidse/i/OOWxt2Nt4mXxrckqCeMT6hJeJ8YkFie2Jk0MmlW0sVkg2RhcmMKKSUhZVtK/7jAcavGdY13HV8y/sYE6wnTJpyfaDAxZ+LRSeqTuJMOpBJSE1N3pn7hRnKruf1pnLSqtD4em7ea94Lvx1/J7xF4C8oFz9K908vTuzO8M1Zk9GT6ZlZk9grZwnXCV1khWRuz3mdHZm/PHshJzNmTq5Kbmtsk0hJli1onG0+eNrlDbC8uEXdO8ZyyakqfJEyyLQ/Jm5DXmK8NP+TbpDbSX6QPC3wKKgs+TE2YemCa5jTRtLbpdtMXTX9WGFT42wx8Bm9Gy0zTmfNmPpzFmrV5NjI7bXbLHPM5xXO65gbP3TGPMi973u9FTkXlRW/nJ85vLjYqnlv8+JfgX2pLaCWSkpsLvBZsXIgvFC5sXzR60dpF30r5pRfKnMoqyr4s5i2+8OuoX9f8OrAkfUn7UrelG5YRl4mW3Vjuu3xHuWZ5YfnjFWNX1K9krCxd+XbVpFXnK1wqNq6mrJau7lwTvqZxrcXaZWu/rMtcd73Sv3JPlWHVoqr36/nrr2zw21C30Whj2cZPm4Sbbm0O3lxfbVVdsYW4pWDL060JW8/+xvytZpvBtrJtX7eLtnfuiNnRWuNeU7PTcOfSWrRWWtuza/yuy7sDdjfWOdRt3qO7p2wv2Cvd+3xf6r4b+8P2txxgHqg7aHmw6hD9UGk9Uj+9vq8hs6GzMbmxoym0qaXZq/nQYcfD24+YHqk8qnN06THKseJjA8cLj/efEJ/oPZlx8nHLpJa7p5JOXWuNbm0/HXb63JmgM6fOss4eP+d97sh5z/NNF5gXGi66Xaxvc2079Lvr74fa3drrL7lfarzscbm5Y0zHsSu+V05eDbh65hrn2sXrEdc7bsTfuHVz/M3OW/xb3bdzbr+6U3Dn89259wj3Su9r3K94YPig+g/bP/Z0unUefRjwsO1R7KO7j3mPXzzJe/Klq/gp9WnFM5NnNd3O3Ud6gnouPx/3vOuF+MXn3pI/Nf+semnz8uBffn+19SX1db2SvBp4vfiN/pvtb13etvRH9T94l/vu8/vSD/ofdnxkfjz7KfHTs89Tv5C+rPlq+7X5W9i3ewO5AwNiroQr/xTAYEXT0wF4vR0AajIAdHg+o4xTnP/kBVGcWeUI/CesOCPKixsAdfD7PboXft3cBGDvVnj8gvrq4wGIogIQ5wHQ0aOH6uBZTX6ulBUiPAdsivqalpsG/k1RnDl/iPvnHshUXcDP/b8AtuF8cfeia2wAAAA4ZVhJZk1NACoAAAAIAAGHaQAEAAAAAQAAABoAAAAAAAKgAgAEAAAAAQAAAT6gAwAEAAAAAQAAAJQAAAAA0y45FwAAD99JREFUeAHtnQmUFMUZxz8OQXaVGxEwoAghhBCiosQTDySAPkAQFdGAgjxEwAN9GoMGRYwafR5EUJKoUVHzYrwwHvHEK0HUqCiIIAgKyLHscuwih5D5hnRt92zNLrPbO9tT/av3oKuqq6vq+33d/63p6q6utTsRhAABCEAgRgRqx8hWTIUABCCQJIDwcSJAAAKxI4Dwxc7lGAwBCCB8nAMQgEDsCCB8sXM5BkMAAggf5wAEIBA7Aghf7FyOwRCAAMLHOQABCMSOAMIXO5djMAQggPBxDkAAArEjgPDFzuUYDAEIIHycAxCAQOwIIHyxczkGQwACCB/nAAQgEDsCCF/sXI7BEIAAwsc5AAEIxI4Awhc7l2MwBCCA8HEOQAACsSOA8MXO5RgMAQggfJwDEIBA7AggfLFzOQZDAAIIH+cABCAQOwIIX+xcjsEQgADCxzkAAQjEjgDCFzuXYzAEIIDwcQ5AAAKxI4Dwxc7lGAwBCNStCQSrv1snBYVFUlKyVXbv3l0TXaBNCECgGgjUqlVL8vIaSLMmjaXVgS2qoYVwqqyVEJ6sKc+2bdtl8dLlUlxcEk7vqQUCEIgsgfz8POnYvp3Ur18vcn3M6ohPRe9nnTtGDgIdggAEqofAZwsXR/Kaz9o9Pv15y0ivek4uaoVAVAnoNa/XftRC1oRP7+kRIACB+BGI4rWfNeHTiQwCBCAQPwJRvPazJnxZnEOJ35mFxRCIMIEoXvtZE74I+4WuQQACMSOQ1VndbLB9deHObDTjbBu9Ojt3SjjrKwyrPAFGfJVnx5EQgECOEkD4ctRxdBsCEKg8AYSv8uw4EgIQyFECCF+OOo5uQwAClSeA8FWeHUdCAAI5SgDhy1HH0W0IQKDyBBC+yrPjSAhAIEcJIHw56ji6DQEIVJ4Awld5dhwJAQjkKAGEL0cdR7chAIHKE4jN+0k7d+6Qb79eLMu+nC916tSRdh26SJt2HaRu3X0yord54wZZuXxJ4t9iqZM4tk3bDtLqR4fIfg2bZFRPRYW/31osXy9ZIN8s/UIaNm4mB3fsIge0aiu6tHcmIax6MmmTshCIOgHnhW/LpkK5fdJoeffVZ6y+OKnf2XLZ5OmSt19D634vc+Enc2XalPGyeMF/vazA9uTTh8qFl02Rlq3bBfIzTajY3XbNCGs7efn7y9mjrpKhF10ttWqXP1gPq55M+095COQCgfKvnlywoJw+frPsSxk7pEda0dND33jhb3LJWb8ULZsu3H/bVTJh6HFWMfKOef35x+W8Xh3k47lvelkZb//zxvNyUf9uadspKd4sD959vUyeMERKtmxKW39Y9aRtgB0QyHECdSYnQjZsWLlqTbKZg1ofWK3NLV2/K1m/rgF22bATZNWKr0x7PfsMkf7njJHux54q9fZtkPwZqTs3FW2QLz59X/oNGWXKepHXZs+Smbdf4yVFR12Dhl8q/QaPlCOO6SWJz8TJyhVLzP55b78sfQaNkPr75pm8vYmsW/OtjDvr6EDR/kPHyGlnj5ZOXbvL1uItUrB2VXL/N8sWJbeHH31KoLwmqlpP+xZO/y0sw4uM6iWQres+Uyuy9pW1uR98kuxbj+7dMu1jRuW9Zak+nvuGXHVBb3Ps5TfclxC2kSatkacevkdm3DLR5N016y3pclip+BQWrJERfTqLjrQ0dD3iOLnuriekSbOW5hiNpNYzfNzv5LyxkwJlKko8cu8UefjeG5PFVFxvfeBl+UnXI81hO3dsl1uuHiFzXvq7KfPEnBXSIG8/U0YjVa2HZakCOElUkUC2rvtMu+nsn/dnZk03LHr07FdG9HTnoF9PkG5H9TTlnn5kmolr5LMP3zWip+krp/65jOhp/hnnj0+KosY1pLsPuGdv2f93bN8mTz50p9lx/iXXB0RPd9Tdp55MvGmmKaNi/Nrsx0xaI2HVE6iUBAQcJOCk8O3etStwX6/3wPPTuu7UAaX75r39UqDcl59/aNLdj+strdseatL+iM60HnNyf5O1+POPTNyLbN/2vbz3+nPy6by3RPvnD0sWfhwQ2J59z/TvNnEd3fXqf55Jp95PDKse0wARCDhKwEnh21RUEHBXl8OOCaT9ia7djzdJHUVt+770Y+dFBWvNvkM7/dzErRHfYyb1GzQoU+SaUX3ld+MGy8Thp8jMO0rvGWrBDeu/M+UPOrijtGh5kEmnRg4/+mSTtXb1ChPXSFj1BColAQEHCTgpfIU+wVKfNWraIq3rGiWekfOHgrWrTXLiTX+SVxbsSP4bNfH3Jt8W+WTeHJN9yI+7mrhGfvhhp8z/8B2Tp7Ou/lC4fs/Ej+Y1O6C1f1eZuN+W1d8sC+wPq55ApSQg4CABJ4XPP/LRiYLyHlJOfX6vYF2p8O2tv3Wk6BezE341OHBonTp198wA/z/3uFPPCOz3t1mR8DVs1NQcW7RhreiD2V4Iqx6vPrYQcJVAXRcN21i43pjVqGlzE7dF9P6ciqM3c6tvZmQaHrirdAa3cdMD5NhTBpSpYur9s2X+B+9I/v6NpONPDwvs9/+kzq/gQer8/RsHji3evFEaNdljY1j1BBogAQEHCTgpfLt2/ZCRq+rVb2CEL6MDE4XfeeVpedY3gzzh+mmyT736ZarRUd8vepxYJl8zMu2vtZIQ60lXP/kQcIWAkz91s+WcpYs+lRsuPcs0d2yvgXJ870EmTQQCEIgmAYSvkn5Zs2q5XD2yrzlaZ2Ov9D1nZ3YQgQAEIkfASeGrXavUrJ3bS2/+p6O/fdtWs0sfFK4o6OMy+niKTi5o0HuEU++bXekVWvwrrugMcCbBP3ETVj2ZtE9ZCOQigVKFyMXep+mz/5EPfXe1vKAPE3sTG1quSWJyorygz/lNunhAcokrr9zNM/+Z9uFmr0x52ybNS99fLipYV15R0dVm/EEnS7wQVj1efWwh4CoBJ4Wvecs2AX/5H0oO7EgkNqXM4jZunl74dDR208RhoktUeUFna/3v93r5mWz9Dyzr+8HlBf9+XQfQH8Kqx18ncQi4SMBN4Ut5CNj/UHKqE/0P/eq+dCM+Xe3l7sljA8/rXXv7o3LU8X1Sq8w43fzAUqFOfSg5tbIN60rf8mh+QOlxWi6selLbJA0B1wg4KXz6ULLed/PC3DkveNEy2w/fe9Xk6TN46e7xPfzHG+TFfzxoyo6fdI/oIqZhBP9ITe8blrfIwdy3XjRNtmxzsIlrJKx6ApWSgICDBJwUPvXTSaeVitJLTz2YWDZvt9V9Lz75F5Pfa8AwE/dHnnv8Pnl0xlSTpctO9T/3YpOuaqTdoZ2Ty9d79bz+fHDVFS9/Q+KtEv8bIj1T3hAJqx6vPbYQcJWAs8I3cNg447Oli+Ynl433r4qi8ek3Xy7Lv1poyvU7c5SJexF9QFmXnPfCgGFjM15rT4/VFZ7/Om1ycu0+/5sluq924hsgZ114pUaT4cmH7kosOTXLSya3WzYXyY2Xn2PydHR65AnBn9lh1WMaIQIBRwk4uxCp+us3o0+TD975l3Fd+05dE6sv905+sOejf78W+Emp9+p0osIfViQ+9DPy9OCCA1quou9daB26AvN1dz6erE5Hm8P7dBLv/l3fwRfIFVNm+puSrSVb5JyebQMzzLoUVuduPUTvQ85984Xk6sreQaOvulWGXHCFlzTbqtbDQqQGJZEQCER1IVKnhU/fu52amIX138ez+VIF5rd3zJL9Ut6DVXG8emRwVGU7Pl2eruyiQVdP7tst3xTTd3WnP/m+SXsRHZlOGtM/IHDePv926OhrZMT4ycmRoj/fi1elHoTPo8g2DAJRFT5nf+qq0/ZPrGSio7hhY64N3EPzHKpvW+i+m2Y8W0b0tIy+XxtG0AmTgcMuMVXpis22oCPSGU/NE/1im/6UTQ0qmNf+4ZHk19z0Z226EFY96eonHwK5TsDpEV+qc/TLZN49PZ0ISF2SKrV82Gl9UFq/6bu3HyLSyYwVSxclv6vbtn2ntDPOFfUzk3oY8VVEk/2ZEIjqiC+cIU0mJGqwrAqd3jOrqeB/xGZv+tC0RSvRf1UNYdVT1X5wPASiQsDpn7pRgUw/IACBaBFA+KLlD3oDAQhkgQDClwXINAEBCESLAMIXLX/QGwhAIAsEEL4sQKYJCEAgWgQQvmj5g95AAAJZIIDwZQEyTUAAAtEigPBFyx/0BgIQyAIBhC8LkGkCAhCIFoGcfnPjhTfXyPTHlknRpj2LAUQLbW72ZrKv240b7iNjzz1E+p3Y0pdLFAK5TyCnR3yIXvWegPoHRRkTIOAagZwWPtecgT0QgEB2COS08OnPMP05RqgeAt5P3eqpnVohUHMEsnaPTz92rSsR70os+V67djh6q/eeuP9UcycPLUOgPAJ6rWvwf+i+vPLZ3BeOAu1Fj/PyGiRLbdy0eS9KUwQCEMh1At617l37UbIna8LXrEnjpN0rV61JjvqiBIG+QAAC4RLQ0Z5e6xq8az/cFqpWW9aEr9WBLSQ/P0+KS7bKgi+WSGHRRgSwar7jaAhEjoAKnl7beo3rta7XvF77UQtZW3peDd+2bbssXrpciotLosaB/kAAAiETUNHr2L6d1K9fL+Saq15dVoXP6+7q79ZJQWGRlCT+IqT70LdXli0EIJA7BHQiQ+/p6c/bKI70PJI1Inxe42whAAEI1ASBrN3jqwnjaBMCEICAjQDCZ6NCHgQg4DQBhM9p92IcBCBgI4Dw2aiQBwEIOE0A4XPavRgHAQjYCCB8NirkQQACThNA+Jx2L8ZBAAI2AgifjQp5EICA0wQQPqfdi3EQgICNAMJno0IeBCDgNAGEz2n3YhwEIGAjgPDZqJAHAQg4TQDhc9q9GAcBCNgIIHw2KuRBAAJOE0D4nHYvxkEAAjYCCJ+NCnkQgIDTBBA+p92LcRCAgI0AwmejQh4EIOA0AYTPafdiHAQgYCOA8NmokAcBCDhNAOFz2r0YBwEI2AggfDYq5EEAAk4TQPicdi/GQQACNgIIn40KeRCAgNMEED6n3YtxEICAjQDCZ6NCHgQg4DQBhM9p92IcBCBgI4Dw2aiQBwEIOE0A4XPavRgHAQjYCCB8NirkQQACThNA+Jx2L8ZBAAI2AgifjQp5EICA0wQQPqfdi3EQgICNAMJno0IeBCDgNAGEz2n3YhwEIGAjgPDZqJAHAQg4TQDhc9q9GAcBCNgIIHw2KuRBAAJOE0D4nHYvxkEAAjYCCJ+NCnkQgIDTBBA+p92LcRCAgI0AwmejQh4EIOA0AYTPafdiHAQgYCOA8NmokAcBCDhNAOFz2r0YBwEI2AggfDYq5EEAAk4TQPicdi/GQQACNgIIn40KeRCAgNMEED6n3YtxEICAjQDCZ6NCHgQg4DQBhM9p92IcBCBgI4Dw2aiQBwEIOE0A4XPavRgHAQjYCCB8NirkQQACThNA+Jx2L8ZBAAI2Av8DSslEyj1u+sEAAAAASUVORK5CYII=;" vertex="1" parent="1">
          <mxGeometry x="440" y="480" width="150.4" height="70" as="geometry" />
        </mxCell>
        <mxCell id="yjNWj8RgQ7WTDaPsMSxr-2" value="" style="shape=image;verticalLabelPosition=bottom;labelBackgroundColor=default;verticalAlign=top;aspect=fixed;imageAspect=0;image=data:image/png,iVBORw0KGgoAAAANSUhEUgAAAUwAAACSCAYAAAAuLfO0AAAMPmlDQ1BJQ0MgUHJvZmlsZQAASImVVwdYU8kWnluSkEBCCSAgJfQmiEgJICWEFkB6txGSAKHEGAgqdmRRwbWgYgEbuiqi2Gl2xM6i2PtiQUFZFwt25U0K6LqvfG/yzcyff87858y5c8sAoH6CKxbnoBoA5IryJTHB/oyk5BQGqRsQAA3+TIAll5cnZkVFhQNYBvu/l3c3ACLrrzrItP45/l+LJl+QxwMAiYI4jZ/Hy4X4IAB4FU8syQeAKOPNp+aLZRhWoC2BAUK8UIYzFLhKhtMUeK/cJi6GDXErACpqXK4kAwDaZcgzCngZUIPWB7GTiC8UAaDOgNgnN3cyH+JUiG2gjRhimT4z7QedjL9ppg1pcrkZQ1ixFnlRCRDmiXO40//PdPzvkpsjHfRhBatapiQkRrZmmLdb2ZPDZFgN4l5RWkQkxFoQfxDy5fYQo5RMaUi8wh415OWxYc6ALsROfG5AGMSGEAeJciLClXxaujCIAzHcIeg0YT4nDmI9iBcK8gJjlTabJJNjlL7Q+nQJm6Xkz3Elcr8yXw+k2fEspf7rTAFHqY/RCjPjEiGmQGxRIEyIgJgGsWNedmyY0mZMYSY7YtBGIo2RxW8BcYxAFOyv0McK0iVBMUr70ty8wfVimzKFnAgl3p+fGReiyA/WyuPK44drwS4LRKz4QR1BXlL44Fr4goBAxdqxboEoPlap80Gc7x+jmItTxDlRSnvcTJATLOPNIHbJK4hVzsUT8uGGVOjj6eL8qDhFnHhhFjc0ShEPvgyEAzYIAAwghTUNTAZZQNje29AL/ylGggAXSEAGEAAHJTM4I1E+IoJtLCgEf0IkAHlD8/zlowJQAPmvQ6yidQDp8tEC+Yxs8BTiXBAGcuB/qXyWaMhbAngCGeE/vHNh5cF4c2CVjf97fpD9zrAgE65kpIMeGeqDlsRAYgAxhBhEtMUNcB/cCw+HrR+szjgT9xhcx3d7wlNCB+ER4Tqhk3B7krBI8lOUY0En1A9S5iLtx1zgVlDTFffHvaE6VMZ1cQPggLtAPyzcF3p2hSxbGbcsK4yftP+2gh+uhtKO7ERGycPIfmSbn2fS7GiuQyqyXP+YH0WsaUP5Zg+N/Oyf/UP2+bAP+9kSW4gdwM5iJ7Hz2BGsATCw41gj1oYdleGh3fVEvrsGvcXI48mGOsJ/+Bu8srJM5jnVOvU4fVGM5QumyZ7RgD1ZPF0izMjMZ7DgG0HA4Ih4jiMYzk7OLgDI3i+Kx9ebaPl7A9Ft+87N/wMA7+MDAwOHv3OhxwHY5w5v/6bvnA0TvjpUATjXxJNKChQcLmsI8CmhDu80fWAMzIENXI8zcANewA8EglAQCeJAMpgIo8+E+1wCpoKZYB4oAWVgGVgF1oGNYAvYAXaD/aABHAEnwRlwEVwG18FduHu6wAvQB96BzwiCkBAqQkf0ERPEErFHnBEm4oMEIuFIDJKMpCIZiAiRIjOR+UgZUo6sQzYjNcg+pAk5iZxHOpDbyEOkB3mNfEIxVA3VRo1QK3QkykRZaBgah05AM9ApaCFajC5B16DV6C60Hj2JXkSvo53oC7QfA5gqpouZYg4YE2NjkVgKlo5JsNlYKVaBVWN1WDO8zlexTqwX+4gTcTrOwB3gDg7B43EePgWfjS/G1+E78Hq8Fb+KP8T78G8EKsGQYE/wJHAISYQMwlRCCaGCsI1wiHAa3ktdhHdEIlGXaE10h/diMjGLOIO4mLieuId4gthBfEzsJ5FI+iR7kjcpksQl5ZNKSGtJu0jHSVdIXaQPKqoqJirOKkEqKSoilSKVCpWdKsdUrqg8U/lM1iBbkj3JkWQ+eTp5KXkruZl8idxF/kzRpFhTvClxlCzKPMoaSh3lNOUe5Y2qqqqZqodqtKpQda7qGtW9qudUH6p+VNNSs1Njq41Xk6otUduudkLtttobKpVqRfWjplDzqUuoNdRT1AfUDzQ6zZHGofFpc2iVtHraFdpLdbK6pTpLfaJ6oXqF+gH1S+q9GmQNKw22BldjtkalRpPGTY1+TbrmKM1IzVzNxZo7Nc9rdmuRtKy0ArX4WsVaW7ROaT2mY3RzOpvOo8+nb6WfpndpE7WttTnaWdpl2ru127X7dLR0XHQSdKbpVOoc1enUxXStdDm6ObpLdffr3tD9NMxoGGuYYNiiYXXDrgx7rzdcz09PoFeqt0fvut4nfYZ+oH62/nL9Bv37BriBnUG0wVSDDQanDXqHaw/3Gs4bXjp8//A7hqihnWGM4QzDLYZthv1GxkbBRmKjtUanjHqNdY39jLOMVxofM+4xoZv4mAhNVpocN3nO0GGwGDmMNYxWRp+poWmIqdR0s2m76Wcza7N4syKzPWb3zSnmTPN085XmLeZ9FiYWYy1mWtRa3LEkWzItMy1XW561fG9lbZVotcCqwarbWs+aY11oXWt9z4Zq42szxaba5pot0ZZpm2273vayHWrnapdpV2l3yR61d7MX2q+37xhBGOExQjSiesRNBzUHlkOBQ63DQ0ddx3DHIscGx5cjLUamjFw+8uzIb06uTjlOW53ujtIaFTqqaFTzqNfOds4850rna6Opo4NGzxndOPqVi72LwGWDyy1XuutY1wWuLa5f3dzdJG51bj3uFu6p7lXuN5nazCjmYuY5D4KHv8ccjyMeHz3dPPM993v+5eXgle2106t7jPUYwZitYx57m3lzvTd7d/owfFJ9Nvl0+pr6cn2rfR/5mfvx/bb5PWPZsrJYu1gv/Z38Jf6H/N+zPdmz2CcCsIDggNKA9kCtwPjAdYEPgsyCMoJqg/qCXYNnBJ8IIYSEhSwPuckx4vA4NZy+UPfQWaGtYWphsWHrwh6F24VLwpvHomNDx64Yey/CMkIU0RAJIjmRKyLvR1lHTYk6HE2MjoqujH4aMypmZszZWHrspNidse/i/OOWxt2Nt4mXxrckqCeMT6hJeJ8YkFie2Jk0MmlW0sVkg2RhcmMKKSUhZVtK/7jAcavGdY13HV8y/sYE6wnTJpyfaDAxZ+LRSeqTuJMOpBJSE1N3pn7hRnKruf1pnLSqtD4em7ea94Lvx1/J7xF4C8oFz9K908vTuzO8M1Zk9GT6ZlZk9grZwnXCV1khWRuz3mdHZm/PHshJzNmTq5Kbmtsk0hJli1onG0+eNrlDbC8uEXdO8ZyyakqfJEyyLQ/Jm5DXmK8NP+TbpDbSX6QPC3wKKgs+TE2YemCa5jTRtLbpdtMXTX9WGFT42wx8Bm9Gy0zTmfNmPpzFmrV5NjI7bXbLHPM5xXO65gbP3TGPMi973u9FTkXlRW/nJ85vLjYqnlv8+JfgX2pLaCWSkpsLvBZsXIgvFC5sXzR60dpF30r5pRfKnMoqyr4s5i2+8OuoX9f8OrAkfUn7UrelG5YRl4mW3Vjuu3xHuWZ5YfnjFWNX1K9krCxd+XbVpFXnK1wqNq6mrJau7lwTvqZxrcXaZWu/rMtcd73Sv3JPlWHVoqr36/nrr2zw21C30Whj2cZPm4Sbbm0O3lxfbVVdsYW4pWDL060JW8/+xvytZpvBtrJtX7eLtnfuiNnRWuNeU7PTcOfSWrRWWtuza/yuy7sDdjfWOdRt3qO7p2wv2Cvd+3xf6r4b+8P2txxgHqg7aHmw6hD9UGk9Uj+9vq8hs6GzMbmxoym0qaXZq/nQYcfD24+YHqk8qnN06THKseJjA8cLj/efEJ/oPZlx8nHLpJa7p5JOXWuNbm0/HXb63JmgM6fOss4eP+d97sh5z/NNF5gXGi66Xaxvc2079Lvr74fa3drrL7lfarzscbm5Y0zHsSu+V05eDbh65hrn2sXrEdc7bsTfuHVz/M3OW/xb3bdzbr+6U3Dn89259wj3Su9r3K94YPig+g/bP/Z0unUefRjwsO1R7KO7j3mPXzzJe/Klq/gp9WnFM5NnNd3O3Ud6gnouPx/3vOuF+MXn3pI/Nf+semnz8uBffn+19SX1db2SvBp4vfiN/pvtb13etvRH9T94l/vu8/vSD/ofdnxkfjz7KfHTs89Tv5C+rPlq+7X5W9i3ewO5AwNiroQr/xTAYEXT0wF4vR0AajIAdHg+o4xTnP/kBVGcWeUI/CesOCPKixsAdfD7PboXft3cBGDvVnj8gvrq4wGIogIQ5wHQ0aOH6uBZTX6ulBUiPAdsivqalpsG/k1RnDl/iPvnHshUXcDP/b8AtuF8cfeia2wAAAA4ZVhJZk1NACoAAAAIAAGHaQAEAAAAAQAAABoAAAAAAAKgAgAEAAAAAQAAAUygAwAEAAAAAQAAAJIAAAAA7OaSAwAADJhJREFUeAHt3elz2zYax3HIt+XEt5tjN5umqdvm2HQ605n9/1/uTGeyTZqjcdrG3SR2rvqI4/soHjmQQOqhjdRgKQlfvIhECAapD6lfKJICa0e2GAoCCCCAwKkCfae2oAECCCCAQEOAwGRDQAABBAIFCMxAKJohgAACBCbbAAIIIBAoQGAGQtEMAQQQIDDZBhBAAIFAAQIzEIpmCCCAAIHJNoAAAggEChCYgVA0QwABBAhMtgEEEEAgUIDADISiGQIIIEBgsg0ggAACgQIEZiAUzRBAAAECk20AAQQQCBQgMAOhaIYAAggQmGwDCCCAQKAAgRkIRTMEEECAwGQbQAABBAIFCMxAKJohgAACBCbbAAIIIBAoQGAGQtEMAQQQIDDZBhBAAIFAAQIzEIpmCCCAAIHJNoAAAggEChCYgVA0QwABBAhMtgEEEEAgUIDADISiGQIIIDDQCQRLy2/Mu5VVs7m5ZY6OjjphkVgGBBCIIFCr1Uy9PmpmpibNpYtzEXqstouaDajKEmpnZ9cs/LpoPnzYrFaBuSOAQOkCY2N1M//FVTM8PFT6vMqaQaV7mBKWt2/Ml/Xe6BcBBDpM4KdHC139ma/sGKZ8DWfPssO2ZhYHgZIF5DMvn/1uLZUFphyzpCCAQHoC3fzZryww5QQPBQEE0hPo5s9+ZYFZ4bmm9LZQ3jECHSTQzZ/9ygKzg9Yfi4IAAggECRCYQUw0QgABBIwhMNkKEEAAgUABAjMQimYIIIAAgck2gAACCAQKEJiBUDRDAAEECEy2AQQQQCBQgMAMhKIZAgggQGCyDSCAAAKBAgRmIBTNEEAAAQKTbQABBBAIFCAwA6FohgACCFQ6gHCV/IeHh2ZtfcOsr783xg6jPzF+zoyfP2f6+j7t/5BY/Zxmsbe/b9bW1s37jU0zNDjYWN5z58ZO+7O212P109YxFQgkIJBcYMptMR48fmr29vYyq3f51fGgpkNDQ+bWN1+aoaHBzOv5iVj95PvNT6+srpundmR6CWa/PH95PDUxft58PX/NZn7Nf7nteax+2jqmAoGEBD5td6rLYdbs3uSPPz1uC0v/be3u7pr/3X9k9z7tnmdBidVPQffN6ucvls2Tp7+1hWWzgX0iy3L33kOzu5v9D8BvE6sfv0+eI5CiQFKB+fPCb5m7Uspe5LS9m93U1IQZtF9zXZHx+p48feYm2x5j9dPWsVchQ/m/WHrl1RgzOjpi5manzbg9fOAfOtjb2zcLvzzLtHUTsfpx/fGIQMoCyXwll6/c/sClszNT5vq1f2XWvYTkyupao06+Ar9+8858NjeTaROrn0ynysTvz5cytdevXTGzM9PNugO7fPfs3rLbs9ywASvBOTiYXaWx+mnOmCcIJCyQzB7mS+/GS4MDA21hKdvAV19+bvr7+5ubQ34PT16I1U9zJsqTg4MDs/5+o/nK1OR4JizlhX57cur2ja+abeTJ4v8/Htj8WBurn8xMmEAgYYEkAlP2LP2TPDN277KoTNuv5664vTc3Hasf6U/CTI4tLr9+m9nzldf+WDney5XnUv5x6cLxk9y/sjfp3+P5/UYrZKVprH5ys2USgWQFkgjMbXtm3C9zJwSmfFX3y769nMeVWP1If3fvPWoco1z8/YV5YO/V7JftnZ3mpJz9HhurN6fzT+QsuSsH+wfuaeMxVj+ZTplAIGGBNAJzezuzikdGhjPT/sTIcPa1za3W325H6ufw8Kixh+nm689D6nZ2Wme8/ZM7rr3/6F/+JMc1/RKrH79PniOQskAigZndwzwphPwAkg1jKxOYcfrp66uZgYHWsdKx+mhmG5RLm1wZ8I6pujr/US5i94t/vWasfvz+eY5AygLZU6o9KuEHx2kXeOcJ5MyzK7H6kf6+u3PLnoV/27icaWZ60s2i8bjvfbXu6z/5/7R8wMtxV7cHHaufzMIxgUDCAkkE5lGkFRyrH1kc2cu8eGFOXbIjE2dOsfpRF5JKBBIUOHn3JUEQ3jICCCBQJEBgFslQjwACCOQECMwcSH6yZr86xyif0o8/R//XSSHL4Z/QitVPyHxpg0AKAkkE5rAdgciV0wIo//rIcOtvY/XjlqXoccD+EskVucD9pJK/uN4/CRSrn5Pmz2sIpCSQRGCOjmavrfQvRs+vbBm2zS/+dZmx+vH71577v945PMheW5lv7y9v/gqAWP3k58k0AqkKJBGY9dHsdY75C8X9lb+VvzjdjhDkSqx+XH9Fj+6yIHk9fzF6/m/8Xx/5X8elXax+8vNkGoFUBZIITP9rqqxo+f12UXnzdiXzkgxy4Uqsflx/RY91L6Slzbs/Voua2kE6WuN2+hfDyx/E6qdw5ryAQGICrTTo8Tc+6v0cUm71UFT81/K/wJG/idVP0fylfnJiPDOC+tLya7W57Cn7F9bPTmd/Bx+rH3XmVCKQoEAygXnln5eaq1d+y33vwc+ZUYLkZM/9h0/MoX10xf8bre4s/chI6Q/trTJkDM7t7dZgGzIfORYpAxu78mFzyzxbfO4mG4/yq6OHj7ODdly+nB3VKFY/mRkzgUDCAq3TsT2OMDU5YX+/PWDcCR/5jfgPd+/bUcxHjVx+I3tr/u+wpa0/EpDjidWPP2q7HDf99vY3bhaNx6tXLtuv4q3DA6/sYMbv7LBv8jVb9iplJCL/jL7sTfYp9/WJ1U9m4ZhAIFGBZPYwZf3evjGfGfRC9hDlFg4yWnk+LP99c75wkzhrP3Iixw+7/KVBMmMZ63L++ueZr+YS9jKwsASs//fn7d0jZfBjrcTqR+ubOgRSE0gqMOUyGxn0QgImfwmOrHipk9e+u3PT3jWydf1lfqM4az9yIsk/IZMfg9PNTwYzvnPra+Nf/+lek0c5K37hs1lz097lUns/rm2sflx/PCKQqkDN7qm0Dtr9jQr//eHHxtz+8/23f+Ncs7OSPTs5lihFvn7nz4JnWxdP/dV+ZBR4CTr/AvPiuRwfNpD7qEuYT0ycb9ym4qT2Ra/J4YcY/RT1Tz0CRQKd8LkvWraQ+mSOYWoYEpByF8azlr/aj3+nypBlkL1Sf8805G+0NrH60fqmDoFeFkjqK3kvr0jeGwIIlC9AYJZvzBwQQKBHBAjMHlmRvA0EEChfgMAs35g5IIBAjwgQmD2yInkbCCBQvgCBWb4xc0AAgR4RIDB7ZEXyNhBAoHwBArN8Y+aAAAI9IkBg9siK5G0ggED5AgRm+cbMAQEEekSAwOyRFcnbQACB8gUIzPKNmQMCCPSIAIHZIyuSt4EAAuULVBaYbvxGf+De8t8uc0AAgaoE3GfdffarWo6zzLeywKzXj29968ajPMub4G8RQKDzBdxn3X32O3+J25ewssCc+XiTrxcvX2VuD9G+iNQggEC3C8jepXzWpbjPfje+p8oC89LFOTM2VjdyR0S5e+LK6hrB2Y1bEMuMwAkCEpTy2ZbPuHzW5TMvn/1uLZXdokLAdnZ2zcKvi40bkXUrIMuNAAJhAhKW819cNXJPrG4tlQamQ1tafmNvIbtqNu3/QBXdYsgtCo8IIBBRQE7wyDFL+RrezXuWjqQjAtMtDI8IIIBAJwtUdgyzk1FYNgQQQEATIDA1FeoQQAABRYDAVFCoQgABBDQBAlNToQ4BBBBQBAhMBYUqBBBAQBMgMDUV6hBAAAFFgMBUUKhCAAEENAECU1OhDgEEEFAECEwFhSoEEEBAEyAwNRXqEEAAAUWAwFRQqEIAAQQ0AQJTU6EOAQQQUAQITAWFKgQQQEATIDA1FeoQQAABRYDAVFCoQgABBDQBAlNToQ4BBBBQBAhMBYUqBBBAQBMgMDUV6hBAAAFFgMBUUKhCAAEENAECU1OhDgEEEFAECEwFhSoEEEBAEyAwNRXqEEAAAUWAwFRQqEIAAQQ0AQJTU6EOAQQQUAQITAWFKgQQQEATIDA1FeoQQAABRYDAVFCoQgABBDQBAlNToQ4BBBBQBAhMBYUqBBBAQBMgMDUV6hBAAAFFgMBUUKhCAAEENAECU1OhDgEEEFAECEwFhSoEEEBAEyAwNRXqEEAAAUWAwFRQqEIAAQQ0AQJTU6EOAQQQUAQITAWFKgQQQEATIDA1FeoQQAABRYDAVFCoQgABBDQBAlNToQ4BBBBQBAhMBYUqBBBAQBMgMDUV6hBAAAFFgMBUUKhCAAEENAECU1OhDgEEEFAECEwFhSoEEEBAEyAwNRXqEEAAAUWAwFRQqEIAAQQ0AQJTU6EOAQQQUAQITAWFKgQQQEATIDA1FeoQQAABRYDAVFCoQgABBDQBAlNToQ4BBBBQBAhMBYUqBBBAQBP4E2oZ2pHVJCarAAAAAElFTkSuQmCC;" vertex="1" parent="1">
          <mxGeometry x="40" y="480" width="159.18" height="70" as="geometry" />
        </mxCell>
        <mxCell id="yjNWj8RgQ7WTDaPsMSxr-3" value="" style="shape=image;verticalLabelPosition=bottom;labelBackgroundColor=default;verticalAlign=top;aspect=fixed;imageAspect=0;image=data:image/png,iVBORw0KGgoAAAANSUhEUgAAAVIAAAISCAYAAACeZUceAAAMPmlDQ1BJQ0MgUHJvZmlsZQAASImVVwdYU8kWnluSkEBCCSAgJfQmiEgJICWEFkB6txGSAKHEGAgqdmRRwbWgYgEbuiqi2Gl2xM6i2PtiQUFZFwt25U0K6LqvfG/yzcyff87858y5c8sAoH6CKxbnoBoA5IryJTHB/oyk5BQGqRsQAA3+TIAll5cnZkVFhQNYBvu/l3c3ACLrrzrItP45/l+LJl+QxwMAiYI4jZ/Hy4X4IAB4FU8syQeAKOPNp+aLZRhWoC2BAUK8UIYzFLhKhtMUeK/cJi6GDXErACpqXK4kAwDaZcgzCngZUIPWB7GTiC8UAaDOgNgnN3cyH+JUiG2gjRhimT4z7QedjL9ppg1pcrkZQ1ixFnlRCRDmiXO40//PdPzvkpsjHfRhBatapiQkRrZmmLdb2ZPDZFgN4l5RWkQkxFoQfxDy5fYQo5RMaUi8wh415OWxYc6ALsROfG5AGMSGEAeJciLClXxaujCIAzHcIeg0YT4nDmI9iBcK8gJjlTabJJNjlL7Q+nQJm6Xkz3Elcr8yXw+k2fEspf7rTAFHqY/RCjPjEiGmQGxRIEyIgJgGsWNedmyY0mZMYSY7YtBGIo2RxW8BcYxAFOyv0McK0iVBMUr70ty8wfVimzKFnAgl3p+fGReiyA/WyuPK44drwS4LRKz4QR1BXlL44Fr4goBAxdqxboEoPlap80Gc7x+jmItTxDlRSnvcTJATLOPNIHbJK4hVzsUT8uGGVOjj6eL8qDhFnHhhFjc0ShEPvgyEAzYIAAwghTUNTAZZQNje29AL/ylGggAXSEAGEAAHJTM4I1E+IoJtLCgEf0IkAHlD8/zlowJQAPmvQ6yidQDp8tEC+Yxs8BTiXBAGcuB/qXyWaMhbAngCGeE/vHNh5cF4c2CVjf97fpD9zrAgE65kpIMeGeqDlsRAYgAxhBhEtMUNcB/cCw+HrR+szjgT9xhcx3d7wlNCB+ER4Tqhk3B7krBI8lOUY0En1A9S5iLtx1zgVlDTFffHvaE6VMZ1cQPggLtAPyzcF3p2hSxbGbcsK4yftP+2gh+uhtKO7ERGycPIfmSbn2fS7GiuQyqyXP+YH0WsaUP5Zg+N/Oyf/UP2+bAP+9kSW4gdwM5iJ7Hz2BGsATCw41gj1oYdleGh3fVEvrsGvcXI48mGOsJ/+Bu8srJM5jnVOvU4fVGM5QumyZ7RgD1ZPF0izMjMZ7DgG0HA4Ih4jiMYzk7OLgDI3i+Kx9ebaPl7A9Ft+87N/wMA7+MDAwOHv3OhxwHY5w5v/6bvnA0TvjpUATjXxJNKChQcLmsI8CmhDu80fWAMzIENXI8zcANewA8EglAQCeJAMpgIo8+E+1wCpoKZYB4oAWVgGVgF1oGNYAvYAXaD/aABHAEnwRlwEVwG18FduHu6wAvQB96BzwiCkBAqQkf0ERPEErFHnBEm4oMEIuFIDJKMpCIZiAiRIjOR+UgZUo6sQzYjNcg+pAk5iZxHOpDbyEOkB3mNfEIxVA3VRo1QK3QkykRZaBgah05AM9ApaCFajC5B16DV6C60Hj2JXkSvo53oC7QfA5gqpouZYg4YE2NjkVgKlo5JsNlYKVaBVWN1WDO8zlexTqwX+4gTcTrOwB3gDg7B43EePgWfjS/G1+E78Hq8Fb+KP8T78G8EKsGQYE/wJHAISYQMwlRCCaGCsI1wiHAa3ktdhHdEIlGXaE10h/diMjGLOIO4mLieuId4gthBfEzsJ5FI+iR7kjcpksQl5ZNKSGtJu0jHSVdIXaQPKqoqJirOKkEqKSoilSKVCpWdKsdUrqg8U/lM1iBbkj3JkWQ+eTp5KXkruZl8idxF/kzRpFhTvClxlCzKPMoaSh3lNOUe5Y2qqqqZqodqtKpQda7qGtW9qudUH6p+VNNSs1Njq41Xk6otUduudkLtttobKpVqRfWjplDzqUuoNdRT1AfUDzQ6zZHGofFpc2iVtHraFdpLdbK6pTpLfaJ6oXqF+gH1S+q9GmQNKw22BldjtkalRpPGTY1+TbrmKM1IzVzNxZo7Nc9rdmuRtKy0ArX4WsVaW7ROaT2mY3RzOpvOo8+nb6WfpndpE7WttTnaWdpl2ru127X7dLR0XHQSdKbpVOoc1enUxXStdDm6ObpLdffr3tD9NMxoGGuYYNiiYXXDrgx7rzdcz09PoFeqt0fvut4nfYZ+oH62/nL9Bv37BriBnUG0wVSDDQanDXqHaw/3Gs4bXjp8//A7hqihnWGM4QzDLYZthv1GxkbBRmKjtUanjHqNdY39jLOMVxofM+4xoZv4mAhNVpocN3nO0GGwGDmMNYxWRp+poWmIqdR0s2m76Wcza7N4syKzPWb3zSnmTPN085XmLeZ9FiYWYy1mWtRa3LEkWzItMy1XW561fG9lbZVotcCqwarbWs+aY11oXWt9z4Zq42szxaba5pot0ZZpm2273vayHWrnapdpV2l3yR61d7MX2q+37xhBGOExQjSiesRNBzUHlkOBQ63DQ0ddx3DHIscGx5cjLUamjFw+8uzIb06uTjlOW53ujtIaFTqqaFTzqNfOds4850rna6Opo4NGzxndOPqVi72LwGWDyy1XuutY1wWuLa5f3dzdJG51bj3uFu6p7lXuN5nazCjmYuY5D4KHv8ccjyMeHz3dPPM993v+5eXgle2106t7jPUYwZitYx57m3lzvTd7d/owfFJ9Nvl0+pr6cn2rfR/5mfvx/bb5PWPZsrJYu1gv/Z38Jf6H/N+zPdmz2CcCsIDggNKA9kCtwPjAdYEPgsyCMoJqg/qCXYNnBJ8IIYSEhSwPuckx4vA4NZy+UPfQWaGtYWphsWHrwh6F24VLwpvHomNDx64Yey/CMkIU0RAJIjmRKyLvR1lHTYk6HE2MjoqujH4aMypmZszZWHrspNidse/i/OOWxt2Nt4mXxrckqCeMT6hJeJ8YkFie2Jk0MmlW0sVkg2RhcmMKKSUhZVtK/7jAcavGdY13HV8y/sYE6wnTJpyfaDAxZ+LRSeqTuJMOpBJSE1N3pn7hRnKruf1pnLSqtD4em7ea94Lvx1/J7xF4C8oFz9K908vTuzO8M1Zk9GT6ZlZk9grZwnXCV1khWRuz3mdHZm/PHshJzNmTq5Kbmtsk0hJli1onG0+eNrlDbC8uEXdO8ZyyakqfJEyyLQ/Jm5DXmK8NP+TbpDbSX6QPC3wKKgs+TE2YemCa5jTRtLbpdtMXTX9WGFT42wx8Bm9Gy0zTmfNmPpzFmrV5NjI7bXbLHPM5xXO65gbP3TGPMi973u9FTkXlRW/nJ85vLjYqnlv8+JfgX2pLaCWSkpsLvBZsXIgvFC5sXzR60dpF30r5pRfKnMoqyr4s5i2+8OuoX9f8OrAkfUn7UrelG5YRl4mW3Vjuu3xHuWZ5YfnjFWNX1K9krCxd+XbVpFXnK1wqNq6mrJau7lwTvqZxrcXaZWu/rMtcd73Sv3JPlWHVoqr36/nrr2zw21C30Whj2cZPm4Sbbm0O3lxfbVVdsYW4pWDL060JW8/+xvytZpvBtrJtX7eLtnfuiNnRWuNeU7PTcOfSWrRWWtuza/yuy7sDdjfWOdRt3qO7p2wv2Cvd+3xf6r4b+8P2txxgHqg7aHmw6hD9UGk9Uj+9vq8hs6GzMbmxoym0qaXZq/nQYcfD24+YHqk8qnN06THKseJjA8cLj/efEJ/oPZlx8nHLpJa7p5JOXWuNbm0/HXb63JmgM6fOss4eP+d97sh5z/NNF5gXGi66Xaxvc2079Lvr74fa3drrL7lfarzscbm5Y0zHsSu+V05eDbh65hrn2sXrEdc7bsTfuHVz/M3OW/xb3bdzbr+6U3Dn89259wj3Su9r3K94YPig+g/bP/Z0unUefRjwsO1R7KO7j3mPXzzJe/Klq/gp9WnFM5NnNd3O3Ud6gnouPx/3vOuF+MXn3pI/Nf+semnz8uBffn+19SX1db2SvBp4vfiN/pvtb13etvRH9T94l/vu8/vSD/ofdnxkfjz7KfHTs89Tv5C+rPlq+7X5W9i3ewO5AwNiroQr/xTAYEXT0wF4vR0AajIAdHg+o4xTnP/kBVGcWeUI/CesOCPKixsAdfD7PboXft3cBGDvVnj8gvrq4wGIogIQ5wHQ0aOH6uBZTX6ulBUiPAdsivqalpsG/k1RnDl/iPvnHshUXcDP/b8AtuF8cfeia2wAAAA4ZVhJZk1NACoAAAAIAAGHaQAEAAAAAQAAABoAAAAAAAKgAgAEAAAAAQAAAVKgAwAEAAAAAQAAAhIAAAAARr3icQAAQABJREFUeAHtnXmwVcWdx5vtsYmA7Mgmm7KJQ6KxxCQM0ThCuZfKKJRbjRqiE8gfMlrGMaJRQhn+kBiloqYKRaMoE8cypYCgM5YQlGHfZJV93/flTv+Or5u+955z3+Gdu5x3z6er3jt9eu9P3/O9fXq7tVLaKAwEIAABCFSbQO1qxyQiBCAAAQh4BBBSPggQgAAEIhJASCMCJDoEIAABhJTPAAQgAIGIBBDSiACJDgEIQAAh5TMAAQhAICIBhDQiQKJDAAIQQEj5DEAAAhCISAAhjQiQ6BCAAAQQUj4DEIAABCISQEgjAiQ6BCAAAYSUzwAEIACBiAQQ0ogAiQ4BCEAAIeUzAAEIQCAiAYQ0IkCiQwACEEBI+QxAAAIQiEgAIY0IkOgQgAAEEFI+AxCAAAQiEkBIIwIkOgQgAAGElM8ABCAAgYgEENKIAIkOAQhAACHlMwABCEAgIgGENCJAokMAAhBASPkMQAACEIhIACGNCJDoEIAABBBSPgMQgAAEIhJASCMCJDoEIACBuqVEsHXbTrV77z515MhRlUqlSlkU8oYABPJIoFatWqpRo4aqRfNmql3bVnlMOZ5J1dICVnQFO378hPp27QZ1+PCReFKhVBCAQN4ING7cSPXo2lnVr1+RtzTjllBJeqQion179YgbC8oDAQgUiMCS5d+W9TNf9DFSeZ2nJ1qgTyvJQiCmBOSZl2e/XE3RhVTGRDEQgEDyCJTzs190IZWJJQwEIJA8AuX87BddSEswt5W8Tyw1hkAMCZTzs190IY1h+1IkCEAAApEIIKSR8BEZAhCAgFIIKZ8CCEAAAhEJIKQRARIdAhCAAELKZwACEIBARAIIaUSARIcABCBQtkIqhybIHwYCEIBAoQmUrZAWGhzpQwACEDAEEFJDgisEIACBahJASKsJjmgQgAAEDAGE1JDgCgEIQKCaBBDSaoIjGgQgAAFDoCQHO5vMS3E9c+aM2n/gkDpw4KDS0/qq6fnnqfObnKdq1z6375R8pVMVg5OnTqn9+w+og4eOqIp69bzynnde46qiZfnnK52shHGAAARUYoRUft5k6YrV6uTJk2nNvm3794fNVlRUqD6XdFcVFfXS/DNv8pVOZrqZ93v3HVCr9S8JiGC7ZtOW7++ant9EXdzjoiqXeOUrHbcM2CEAgXQC59YNS49bY+72697nwiUrskTUrcCJEyfUgsXLdW9V91QDTL7SCUjeOm/avE2tWr0uS0RtAG2RsvzfomXqxIn0LwY3TL7ScdPEDgEIZBNIhJCu/HZd2q+USq/zAv3rhs2bN1X19OuyMXJe4qrV681t1jVf6WQl7DjITzJs3rrdcVGqYcMGqlXLC9T5ehjCHYI4efKU+nbN+rSw5iZf6Zj0uEIAAsEEyv7VXl7d3QNlW7Zorrpd1CmNiIjn3n37PTd5ld6xc7dq3apFWph8pZOWqM/Nd5u2prl2u6ijatniAut2Wpdvke5dm57oIS28Iqj16qU3Zb7SsRljgQAEAgmUfY90i/ODW/Xq1s0SUSHTs3sXVadOHQsps0coHvlKx2biYzl9+rQ6cPCQ9Wne7Pw0ERWPOnpSrG+vnjaMWDZsrBw4rXTNVzppmXADAQgEEih7IXUnl1ro3miQuUC/5htjenvmXnq0+UhH0hORk7HLbTt2pfWUxW/P3u97xWIXc2G7Nt9bMv5L79P9jfCDh86KrwTNVzoZ2XILAQgEECh7IXXr3SqHkMorv2tO6WVHxhzTM/6uqW46ksb/LVrujYFu+G6zWqp/69s1x44ft7dy4Erjxo3sfaZFZu2NOX3qtLF613ylk5YoNxCAQCCBRAlpgwb1A0E0qJ/ud+ToMRv22LGzdnGsbjpnzqS8HqlJ2M1D3I4fPzsD704qmfDu1V2mJeOmrslXOm6a2CEAgWACiRLSXOLkCpPgOpompOk90uqmU7t2LVW37tmx2MaNGqa1jCzBMqauM2Zr3NyrLM53jbveNF/puOljhwAEggmkT/UGh6vxPud6NqnMhBvjClOUdCS9f7q0j14VsMtbdtXigmYmC+96ynlFr10n93dcpvDLuK7pKecrnbTCcQMBCAQSSIyQBhII4ZEKESZsEOmVtm3Tyjd4SuUnp3yl41tIHCEAgSwCubs9WcFxgAAEIACBTAIIaSYR7iEAAQicIwGENABYLf0Kng9zLum4Obq7scKUw50Ay1c6YfIlDAQgoFRihLQqYcr0b1C/wn4+6uuToYzJDGfczTXT303HhAm61tU7r4yRhfu5TOamAXfyKV/p5MofPwhA4CyBxAipVNldZH8Wwfc2OR7PNe660oYN09eYVjcdN30/u7tb6czp9LWhmeHd8mauJMhXOpl5cg8BCPgTSJSQZi6Ad5EczVx0r09cMqZRw/T1ntVNx6QXdDXLl8Q/c5F9Zhx3t5X7Wi/h8pVOZp7cQwAC/gQSJaSyvz3I7Ny1N81LDgcxxn1tFrfqpmPSC7o2csRbwuzesy8oqD7c5Oy5qe4if4mQr3QCM8cDAhBII3BWLdKcy+emobMtVH6yI8i4fpk7jiROvtIJyl/cmzU9P+3E+63bdvgGlx6xu2Gg5QXp5wTkKx3fzHGEAASyCJS9kHbs0M5WWva6L1q6Mu3UJZkcWrxslTqjr8a4cfzcoqQjJ9sv0z95ImegHjt29pASyUfGOuXAaWMOHzmq1m/YZG69q+yyWrYi/bCT9u3TT4nKVzppGXMDAQgEEjg7TRwYpGZ7NG/WVO9vr2snmmQP/df/t1ifOt9QyTIh6d25+9QlrHuykql9vtJxT9mXcdn+fS8xWXjXzh3b61f6s8MM2/Uh07v18Xryui69UDnZyV0ZIL3P2lqAM02+0slMl3sIQCCbQNn3SKXKfXv1SDssRHqU8lMccrp8poj2690jm1KlS9R0ZALJFcHMJUySjZw12qNbl7RXfFklIAc+i/C68ZvoXxOVQ6n9TL7S8UsbNwhAIJ1AIoRUlgPJYSEiPJlLhQSHuInfP13aW/+K6Nk1o+molHeYcpR0ZALLnQjKPAPV5CeHTF/a52Llrl81fnKVWfo2rVuq3vpXT/3qY8LmKx2THlcIQMCfQC3dwzk7OOgfJq+uc79e6KX3ox/2z2u6mYkZgfGrnvQEZaxSjLzGZ87KZ6YVdF/ddOS0fSmfu3A+KA9xl+GHA7q8IvJNmzbxfm4kV/ggv3ylE5Q+7hAIIlCs5z4o/0K7l/0YqR9AEU75Vc6oprrpuL9cGqYM0ot1e7Jh4viFyVc6fmnjBoEkE0jEq32SG5i6QwAChSeAkBaeMTlAAAJlTgAhLfMGpnoQgEDhCSCkhWdMDhCAQJkTQEjLvIGpHgQgUHgCCGnhGZMDBCBQ5gTKdvmT3/rRMm9LqgcBCJSIAD3SEoEnWwhAoHwIIKTl05bUBAIQKBGBsni1/3j2dvXylHVq34GTJcJY3tk2O7+eGnnXRWrIoPTj+sq71tQOAuEJlEWPFBEN3+DVCSlfUMIYAwEI+BMoCyH1rxquEIAABIpDoCyEVF475fUTUxgC5tW+MKmTKgRqPoGij5HK8XGyNEkOVM789cvq4pSxO8bvqkuPeBAoLAFzeLo52rKwuZUm9aL3SBs1+v6njc15oKWpNrlCAALFImCedfPsFyvfYuZTdCFtUfnjbpu3bE/7mY9iVpq8IACB4hCQ3qg862LMs1+cnIubS9GFtF3bVqpx40ZKfiFTfk1z7779CGpx25zcIFBwAiKg8mzLMy7Pujzz8uyXqyn6T40IyOPHT6hv127wfoCuXMFSLwhA4HsCIqI9unb2fvOsXJmUREgNzK3bduqfGt6njuhvLPbGGypcIVDzCcjEkoyJyut8OfdETUuVVEhNIbhCAAIQqMkEij5GWpNhUXYIQAACfgSKvo7UrxCu285de9S+/QfUocNH1Qn9s8X6nd/1xg4BCBSSgH4lr6hXT53XuKFq1vT8vPzabiGLG5e0Y/NqLwK6SS+TOHHiRFzYUA4IJJ5ARUWF6tC+DYJaxSchFkK6/rvNavuOXV5RzzuvsWrVork6v8l53ixfOe+GqKJt8IZA0QnIpK+sqjlw8JDauXuvOnTosFeGNq1bqi6dLix6eWpKhiUXUldEL+rcQbVu1aKmsKOcECh7Ajt27lbrNmzy6omYBjd3SSeb5HXe9EQv6dEVEQ1uJ3wgUBIC0rGRZ1OMPKvyzGKyCZRUSGVMVIz0RJs2bZJdOlwgAIGSE5BnU55RMeaZLXmhYlaAkgmpfLPJxJKMifI6H7NPBcWBQAYBeUblWZVnll5pBhx9WzIhlSVOYmRiCQMBCMSfgHlWzbMb/xIXr4QlE1JZJypGZucxEIBA/AmYZ9U8u/EvcfFKWDIh9Rbb63rWr19RvNqSEwQgUG0C5lk1z261EyrDiCUTUrNjiXWiZfipokplScA+q+w2zGrf0glpVlFwgAAEIFAzCSCkNbPdKDUEIBAjAghpjBqDokAAAjWTAEJaM9uNUkMAAjEigJDGqDEoCgQgUDMJIKQ1s90oNQQgECMCCGmMGoOiQAACNZMAQloz241SQwACMSKAkMaoMSgKBCBQMwkgpDWz3Sg1BCAQIwIIaYwag6JAAAI1kwBCWjPbjVJDAAIxIoCQxqgxKAoEIFAzCSCkNbPdKDUEIBAjAghpjBqDokAAAjWTAEJaM9uNUkMAAjEigJDGqDEoCgQgUDMJIKQ1s90oNQQgECMCCGmMGoOiQAACNZMAQloz241SQwACMSKAkMaoMSgKBCBQMwkgpDWz3Sg1BCAQIwIIaYwag6JAAAI1kwBCWjPbjVJDAAIxIoCQxqgxKAoEIFAzCSCkNbPdKDUEIBAjAnVjVJbYFGXXrl1qyZIlaunSpapRo0aqX79+qlevXqpx48ZVljGVSqnvvvvOi79y5UrVsWNH1adPH9WzZ09Vt2403EeOHPHKtHjxYnX06FHVt29fL+2WLVtWWS4JEKVeoTIgEASSSkA/+CUxc+YtSMlfnIwWp9S9996b0p8F379JkyblLO7GjRtTAwYM8I3bunXr1Jdffpkzfi7PiRMn+qYrZX344YdTx44dC4wetV6BCeOROAJxfG7j0AiqVIWIW4McOHAgdeWVVwaKlRHX0aNH+yLTvcSUiKUJF3SdOnWqb/xcjo888kiV6UrZdY81K5mo9cpKEIdEE4jbcxuXxmCMVCuemClTpqg5c+Z4di2I6osvvlC6l6f27NmjXn31Vc9d/k2YMEGtXr3a3hvL2LFj1Y4dO7zbQYMGqRUrVqjTp097r/kjR440wdSoUaPUqVOn7H1VFhli0L1RG+yNN95Q+/bt817tZ8yYoZo0aeL5Sdnfe+89G85YotbLpMMVAhDIQaBUih6nb7YzZ86k9Bim7fUtX748C4v7ap3ZK920aZON27Vr19Thw4fT4kv6t912mw0zbdq0NP9cN25v9M9//nNW0AULFth0e/funZK8jIlaL5MOVwgYAnF6bk2Z4nDl1V63wvz5860YDR482LdddM/UhpFXeNe89NJL1u/ZZ591vaz9k08+sWFGjBhh3Y1F93JT27ZtM7feVYRQfwfav0OHDqX5m5vLL7/chtE9YeMcuV42ISwQqCSAkPp/FHi110q1ZcsW22cfMmSItbuW5s2bK3llFyOv8PLab4yeZDJWde2111q7azFxxW3t2rWulxo3bpzq3r27atu2rfrwww+tn7zCGzN06NDAVQM33nijCaY2b95s7VHrZRPCAgEI5CSAkGo8W7dutZBEzIJM+/btrZcbR7/aW/c2bdpYu2upqKiw45kbNmxwvdSsWbPsvYx7GrN9+3ZjVW7e1rHS4ubpiqdbxurUKzMf7iEAAX8CCKnm4gqOK0qZyGQSyhg3jiterVq1MkGyrrKmVIwIrzvhNHz4cE9kJf1hw4bZeK6Q5hJCdx2pK+puGatTL1sQLBCAQE4C0VaI50y65ni6r9ANGjQILLgszjdGFscbIzP7xtSvX99Ys67ugv4TJ07YBfoipHfccYeqU6eO92ci7t+/31hVrnK56brlilovmzkWCEAgJwGEVOPRw8c5IVXl6fYuqwob5C+v/pkmarmixs8sD/cQgIA/AV7t/bngCgEIQCA0AYRUo6pVq5YFppccWXsuS+3aZ9G5e+jD9gLd+EH5VKdcMjxgTHXihymXSZ8rBCDwPYGzapBgIi1atLC137t3r7VnWvR2S+vkTvC4dndc0gautJgxT9mNlGvM08S74IILjNXbYWVvMiwmXXF2J7ui1isjG24hAIEAAgipBmNm04WRnJAUZNw1mu4seJcuXWyU3bt3W3umZdWqVZ5Tu3btMr18790lTzt37vQNI45Bs/tR6xWYIR4QgEAaAYRU4+jQoYOFsmbNGmvPtLh+bi+0c+fONui6deus3bW4M/tueDdMpt0VUjmSL8isX7/eernLpKLWyyaKBQIQyEkAIdV4unXrZiFNnjxZ+Y2TykElixYt8sLpPe1py5R69Ohh4+vTnazdtbg7luR80jBGXv+NGM6bNy9rR5SkIQej/PWvf7XJ6b3+1h61XjYhLBCAQE4CCKnG06lTJyVbMMXIgnY5Mck1MoE0fvx46+Se5iSON910k9219Nprr6lly5bZsGI5ePCgd2qUcbzvvvuM1V7l1V3vpbf3xiKnRRnzu9/9Lmup1jvvvOOVWcLog1G8baYmfNR6mXS4QgACVRDQIlESE7fDD6ZPny6LSe3fM888k5o9e3ZKb9lM3XPPPdZdwugJqSxmTz31lA2jJ5NSWlBTX331VUpOenIPFRk4cGBWXPfQk5kzZ6b5u4elSN5y4ImUVR/zl5IDUtwyZ8aVhKLWK60w3CSeQNye27g0CKc/VbaEnLQ0ZsyYNGFyRcrYg47AE3HVB5bkjC9H7Onealbby4lTJv3MI/oksBwGbfyDrk888UTaEXomk6j1MulwhYAQQEj9PwcIaQYX/VqfdjapES7pScpxe7nMyZMnU48//njWSfnSQ7399ttT+vXdN7o561TCffbZZ75hJG8pgymPucoZpG+++aZvHNcxSr3cdLAnmwBC6t/+tcRZP5RFN3O/Xujl+aMf9i963mEylD3rMksvi+1lMslddB8mviyjkh/Bk9l9WYbkLo73iy/rT2WffsOGDf28rZtsR5VlVDLJJJNJ7v5/GyiHJWq9ciSNVwIIxP25LVUTIKSlIk++EKiBBBBS/0Zj1t6fC64QgAAEQhNASEOjIiAEIAABfwIIqT8XXCEAAQiEJoCQhkZFQAhAAAL+BBBSfy64QgACEAhNACENjYqAEIAABPwJIKT+XHCFAAQgEJoAQhoaFQEhAAEI+BNASP254AoBCEAgNAGENDQqAkIAAhDwJ4CQ+nPBFQIQgEBoAghpaFQEhAAEIOBPACH154IrBCAAgdAEENLQqAgIAQhAwJ8AQurPBVcIQAACoQkgpKFRERACEICAPwGE1J8LrhCAAARCE0BIQ6MiIAQgAAF/AgipPxdcIQABCIQmgJCGRkVACEAAAv4EEFJ/LrhCAAIQCE0AIQ2NioAQgAAE/AkgpP5ccIUABCAQmgBCGhoVASEAAQj4E0BI/bngCgEIQCA0AYQ0NCoCQgACEPAngJD6c8EVAhCAQGgCCGloVASEAAQg4E8AIfXngisEIACB0AQQ0tCoCAgBCEDAnwBC6s8FVwhAAAKhCSCkoVEREAIQgIA/AYTUnwuuEIAABEITQEhDoyIgBCAAAX8CCKk/F1whAAEIhCaAkIZGRUAIQAAC/gQQUn8uuEIAAhAITQAhDY2KgBCAAAT8CSCk/lxwhQAEIBCaAEIaGhUBIQABCPgTqOvvnGzXXbt2qSVLlqilS5eqRo0aqX79+qlevXqpxo0bVwkmlUqp7777zou/cuVK1bFjR9WnTx/Vs2dPVbdu/nCfOXNG/eMf/1CdO3dW7dq1y1muvXv3qtWrV+cMYzz79++vKioqzC1XCEAgDAH94JfEzJm3ICV/cTJHjx5N3XvvvSnNzfdv0qRJOYu7cePG1IABA3zjtm7dOvXll1/mjB/Gc926dalnn3021aFDBy+ft99+u8pob7zxhm+Z/Oqpv0CqTI8AySUQx+c2Dq2Rvy5SGNWOcZiDBw+qn//852rOnDmBpXzwwQfV8uXL1R/+8IesMNKD/dnPfqZ27NiR5ScO4j5w4EA1depUddttt/mGCXI8dOiQ+tvf/qZef/119dlnnwUFC3TfunVroB8eEIBAdAIIaSXDKVOmWBHVvUdP8K644gp15MgR9d5776mHHnrICzlhwgQ1cuRI1b179zT6Y8eOtSI6aNAg9corr6gePXqozZs3qxdeeEG9/PLLXvhRo0apm266KfRrvojnAw88kJbXud5s2bLFRhk/frxq2rSpvc+06J5uphP3EIBAVQRK1S2O0yuCHm9M6TFM+/qre51ZWCZOnGj9R48enea/adMm69e1a9fU4cOH0/wlfd0LtWGmTZuW5p/r5te//rWNp9sypXvFKS3E1i3Mq70b/sSJE7myww8COQnE6bnNWdAiezJrr9VpwYIFatWqVd53zuDBg9Ull1yS9f1z1113Wbe33nrL2sWihdHe33///d4ElXXQllq1aikZFjDmgw8+MFZ7XbNmjdq+fbu9N5YGDRqooUOHqnfffVdpgVavvvqquvrqq413qKseu/XCSU+7Xr16oeIQCAIQCE8AIdWs3FffIUOG+NJr3ry5kld2MTLeeezYMc8u/4xQif3aa6+VS5YxccVj7dq1af7jxo3zhgratm2rPvzwwzS/5557Tn300Ufq9ttvzxLotIA5bnSP2fPVveUcofCCAASqSwAh1eTcyRgRsyDTvn176+XGMUIlnm3atLFhXIssKWrSpInntGHDBtdLzZo1y97PmDHD2vNhOXnypB277dKlizfmu2jRIvXpp5+qhQsXpn0h5CM/0oBAEgkgpLrVXVEMEkL5cMirsTFuHLdH26pVKxMk6yprSsWI8J46dcr6Dx8+3BNZSX/YsGHWPR8WdxXBO++8o+SLQtaKXnfddeqyyy5TDRs2VLfeeqvauXNnPrIjDQgkkgBCqpt93759tvFlTDLIyOJ8Y2Q235g9e/YYq6pfv761Z1rcBf160sd6i5DKJgAR5Kuuusq658Oybdu2tGRkmVemkTHevn37qmXLlmV6cQ8BCIQggJBqSHqCLwSq4CBu7zI4VG4fefWvU6dO7kDV8M0UUhnDffHFF5We7VePPvqoTVF6rrI0CwMBCJw7AdaRnjuzGhVDXuHnzp2r9K4qdf3116etSJBhhDvvvNOuApg+fbqSMdprrrmmRtWRwkKg1ATokeoWkOVJxsge9jCmdu2z6Nw99GF7t278MPlVN4yUTTYW6LWvaSJq0pPdVmPGjDG3at68edaOBQIQCEfgrBqEC1+WoVq0aGHrJQd8BJkDBw5Yr5YtW/ra3fFWG6DSsn//fs8ms/e5xmIz4xX6/sYbb7RZmPW01gELBCBQJQGEVCMys+lCSyZ9goxs9zTGnd2XZUXG7N6921izrkakqjqtKStigR0uvPBCm4NbR+uIBQIQyEmAMVKNx91fLjuMgozr5/ZI5Sg7Y/TpTOriiy82t/bqzuy74W2AAlhkmOLpp5/2llrJvv/77rvPNxd36ZP7peIbGEcIQCCLAD1SjaRbt24WzOTJk5XfOKmc5ykL2cX07t07bYZdRMoYOd3Jz7g7luR80mIYGYeV7azPP/+8+tWvfpW2dtXNXyaijPH7EjB+XCEAAX8CCKnm0qlTJ28/uyCSxfJyEpRrZAJJTk0yRk5/co2c5mR2Lb322mtZ6zFl7aacGmWMX89QeoVyXF6+jdnyKmXwO/5Plj395je/sdleeeWV1o4FAhAIRwAhreTkrqEcMWKEkmPxPv/8czVz5kzvlVgf6myJ3n333dYuFlmoL7PixogYyfF3crbpf/3Xf3nnlJrerMySX3rppSaod9UnS3m7pkSMq3PeaFpiGTe//OUvrYvMzv/iF7/wlkJ988036s033/RO/zeL9G+55Rb1k5/8xIbHAgEIhCRQ5NOmbHZxO45LjrrTQmOPp9P4fO1BR+Dp2f6UXuzuG8ekJUfs6d1DloGx6BOnbLzMI/pMGPeqe8c2fJhj9CSMKUPQVcq2fv16NxvsEMgiELfnNquAJXKgR6qVRYysJZUDmOW1Xn5fKdNIT3L+/Pnq5ptvzvTy7ps1a6Y+/vhj9fjjj6ftyRdP6WnK6U2yMF5++ynTyF53MRLuhhtuyPTOunfXrYbZDSUL76VHLIvzM43k+dhjj6nFixd7v/+U6c89BCBQNYFaIuBVB8t/iLlfL/QS/dEP++c/8TykKHvpZZZeREsmk1zxCpO8LKOSH8GT2X2ZCXcX/fvFl/Wnsk9fDhEppDl+/LjSPU/vbFNZ9uQu4ypkvqRdHgTi/tyWijLLnwLIm18PDfCu0lkE1F0iVVUE6dEWw4hYMzNfDNLkkSQCvNonqbWpKwQgUBACCGlBsJIoBCCQJAIIaZJam7pCAAIFIYCQFgQriUIAAkkigJAmqbWpKwQgUBACCGlBsJIoBCCQJAIIaZJam7pCAAIFIYCQFgQriUIAAkkigJAmqbWpKwQgUBACCGlBsJIoBCCQJAIIaZJam7pCAAIFIYCQFgQriUIAAkkigJAmqbWpKwQgUBACCGlBsJIoBCCQJAIIaZJam7pCAAIFIYCQFgQriUIAAkkigJAmqbWpKwQgUBACCGlBsJIoBCCQJAIIaZJam7pCAAIFIYCQFgQriUIAAkkigJAmqbWpKwQgUBACCGlBsJIoBCCQJAIIaZJam7pCAAIFIYCQFgQriUIAAkkigJAmqbWpKwQgUBACCGlBsJIoBCCQJAIIaZJam7pCAAIFIYCQFgQriUIAAkkigJAmqbWpKwQgUBACCGlBsJIoBCCQJAIIaZJam7pCAAIFIYCQFgQriUIAAkkigJAmqbWpKwQgUBACCGlBsJIoBCCQJAIIaZJam7pCAAIFIYCQFgQriUIAAkkigJAmqbWpKwQgUBACCGlBsJIoBCCQJAIIaZJam7pCAAIFIYCQFgQriUIAAkkiUDdJlQ1b1127dqklS5aopUuXqkaNGql+/fqpXr16qcaNG1eZRCqVUt99950Xf+XKlapjx46qT58+qmfPnqpu3Wi4169fr5YvX65Wr16tGjRooLp376569+6t2rRpU2W5JECUeoXKgEAQSCoB/eCXxMyZtyAlf3EyR48eTd17770p/Vnw/Zs0aVLO4m7cuDE1YMAA37itW7dOffnllznjB3lu3rw5NWLECN90paxPPvlk6uDBg0HRU1HrFZgwHokjEMfnNg6NoEpViLg1yIEDB1JXXnlloFgZcR09erQvssWLF6dELE24oOvUqVN94wc5ijg3adKkynSvvfba1JkzZ7KSiVqvrARxSDSBuD23cWkMxki14omZMmWKmjNnjmfXgqi++OILdezYMbVnzx716quveu7yb8KECd6rtXWotIwdO1bt2LHDuxs0aJBasWKFOn36tPeaP3LkSBt81KhR6tSpU/a+KsuwYcOU7m3adBcuXOile/z4cfXJJ5+oDh06eH7Tp09Xr7/+elZyUeuVlSAOEIBANoFSKXqcvtmkJ6fHMG2vT49DZmGZOHGi9c/slW7atMn6de3aNXX48OG0+JL+bbfdZsNMmzYtzT/o5ttvv7VxJN1Dhw5lBZ01a5YNc/3116f5R61XWmLcQEATiNNzG6cGoUeqv1sWLFigVq1a5X3LDB48WF1yySVZ3zh33XWXdXvrrbesXSxaGO39/fff701QWQdtqVWrlnrwwQet0wcffGDtxrJmzRq1fft2c+tdTQ9Zbu6++27fya6f/vSnNs4333xj7WKJWq+0xLiBAAQCCSCkGs2WLVssoCFDhli7a2nevLmSV3Yx8govr/3G6HFMY1V6rNLaXYuJK25r1651vdS4ceO8Gfi2bduqDz/80PqJqH/88cfe3wMPPGDdXYuItB5D9ZykXPpb2npHrZdNCAsEIJCTAEKq8WzdutVCEjELMu3bt7debhz9am/dg5YiVVRUWMHbsGGDDS8W/Xpu72fMmGHtkp9+Xff+OnfubN1diyyxMmOol156qdf7Nf5uGatTL5MOVwhAIDcBhFTzcQUnSAgFo0xCGePGcXt+rVq1MkGyrrKmVIwIrzvhNHz4cE9kJX2ZXApr9LIopZdF2eAykeUat4zVqZebFnYIQCCYQLQV4sHp1iifffv22fLKQvcgI4vzjTly5IixejP75qZ+/frGmnV1F/SfOHHCLtAXIb3jjjtUnTp1vL+siJUO0nOVcVMZVpBVAe+++64N+txzz6l77rnH3oslar3SEuMGAhAIJICQajTuuGIgqRwebu8yR7CcXvLqX5X5+9//rsaPH58V7KWXXlKPPPJIlnvUemUliAMEIOBLgFd7XyzxdGzZsqXSy6DShhikpI8++qi31hXhjGe7UaryJ4CQ6jaWmW9j9NpLY815rV37LDp3D31YMXPj58zI8XzssceUWSal15Sq999/3y7If/jhh9UTTzzhhI5er7TEuIEABAIJnFWDwCDl79GiRQtbyb1791p7pkVvt7RO0js0xrW745LG31z379/vWWW5Uq6xWBM+11XGW2+99VblzvK/8MILyuQhcaPWK1f++EEAAmcJIKSahZlNFyxyQlKQkVlyY9xZ8C5duhhntXv3bmvPtJhF/+3atcv0qvb9xRdfrG655RYbX++Gsvao9bIJYYEABHISYLJJ4zH71YWUvDoHGdfP7YW6azzXrVunRNwyjezZN8YNb9z8rh999JH6n//5H89Ldkz5pSueF154oY3ufhFErZdNFAsEIJCTAD1Sjadbt24W0uTJk5XfOKmcAbpo0SIvnJwBKkuVjOnRo4exKn26k7W7FnfHkpxPGsZID/b3v/+99+cu2s+M6/ZCL7roIusdtV42ISwQgEBOAgipxtOpUyc1dOhQD5QslpcTk1wjE0jusiP3NCcJd9NNN9ldS6+99ppatmyZG93beSSnRhlz3333Gau97ty5U8kEkmsuu+wyeyvrRN3xT+Mh60rlFCgxsqBfDpA2Jmq9TDpcIQCBKghokSiJidspMvoYOtmkbv+eeeaZ1OzZs1N6MielF7pbdwmjJ6SymD311FM2jJwfqgU19dVXX6XkpKfLL7/c+g0cODArrl4Hav1nzpxp/U+ePJmS8KZccgKU7jGnvv7669TcuXNTurdq/SSMnFCVaaLWKzM97pNNIG7PbVxag4OdK1tCjpwbM2ZMmjAZAXOvQUfgibjK4cpu2Ey7CKHurWa1vT6cxMbLPKJPDnbWPU3rn5mmuZcT9KUOmSZqvTLT4z7ZBBBS//ZHSDO46Nf6tLNJjVBJz3D+/PkZodNvpQf5+OOPZwmf9FBvv/32lH59T49QeWfOOpVwn332WVYYOYf0t7/9re9J+Xq8NqUnpbLiZDpEqVdmWtwnlwBC6t/2tcRZi0XRzdyvF3p5/uiH/Yued5gMZS+9zNLLYnuZTHIX3YeJL7Pn8iN4Mrsvy5DcRf9+8WX9qezTb9iwoZ+3dZOxVBnHlfLIZJK7/98GymGJWq8cSeOVAAJxf25L1QQIaanIky8EaiABhNS/0Zi19+eCKwQgAIHQBBDS0KgICAEIQMCfAELqzwVXCEAAAqEJIKShUREQAhCAgD8BhNSfC64QgAAEQhNASEOjIiAEIAABfwIIqT8XXCEAAQiEJoCQhkZFQAhAAAL+BBBSfy64QgACEAhNACENjYqAEIAABPwJIKT+XHCFAAQgEJoAQhoaFQEhAAEI+BNASP254AoBCEAgNAGENDQqAkIAAhDwJ4CQ+nPBFQIQgEBoAghpaFQEhAAEIOBPACH154IrBCAAgdAEENLQqAgIAQhAwJ8AQurPBVcIQAACoQkgpKFRERACEICAPwGE1J8LrhCAAARCE0BIQ6MiIAQgAAF/AgipPxdcIQABCIQmgJCGRkVACEAAAv4EEFJ/LrhCAAIQCE0AIQ2NioAQgAAE/AkgpP5ccIUABCAQmgBCGhoVASEAAQj4E0BI/bngCgEIQCA0AYQ0NCoCQgACEPAngJD6c8EVAhCAQGgCCGloVASEAAQg4E8AIfXngisEIACB0AQQ0tCoCAgBCEDAnwBC6s8FVwhAAAKhCSCkoVEREAIQgIA/AYTUnwuuEIAABEITQEhDoyIgBCAAAX8CCKk/F1whAAEIhCaAkIZGRUAIQAAC/gTq+jsn23XXrl1qyZIlaunSpapRo0aqX79+qlevXqpx48ZVgkmlUuq7777z4q9cuVJ17NhR9enTR/Xs2VPVrZtf3Hv37lWrV6/2ytS8eXPVvXt33/K54XwDOI79+/dXFRUVjgtWCECgSgL6wS+JmTNvQUr+4mSOHj2auvfee1Mamu/fpEmTchZ348aNqQEDBvjGbd26derLL7/MGf9cPM+cOZO6/vrrbV5iDzJvvPGGDRdUN+Ouv0CCksEdAt4zG7fnNg7Nwqt95VfNwYMH1T//8z+rv/zlL5Uu2ZcHH3xQ/frXv8720C7Sg/3BD36g5s+f7+u/Y8cONXDgQPX+++/7+p+r41tvvaX+/ve/h4q2devWUOEIBAEIVI9Aft81q1eGWMSaMmWKmjNnjlcW3XtUU6dOVVdccYU6cuSIeu+999RDDz3k+U2YMEGNHDky6zV67NixSsRSzKBBg9Qrr7yievTooTZv3qxeeOEF9fLLL3t+o0aNUjfddFOk1/zt27d7ZfASDPFvy5YtNtT48eNV06ZN7X2mpUOHDplO3EMAAlURKFW3OE6v9vKarMcw7evv8uXLs7BMnDjR+o8ePTrNf9OmTdava9euqcOHD6f5S/q33XabDTNt2rQ0/3O9GTZsmE1Lt69nz/Vqr4Xbhj9x4sS5Zkd4CFgCcXpubaFiYOHVXivRggUL1KpVq7zvnMGDB6tLLrkk6/vnrrvusm7yWu0aLYz29v777/cmqKyDttSqVUvJsIAxH3zwgbHa65o1a5T0NKsyH330kXrnnXe8YFLWMEaP3XrBpKddr169MFEIAwEInAMBhFTDcl99hwwZ4otPZsXllV2MvMIfO3bMs8s/I1Riv/baa+WSZUxc8Vi7dm2a/7hx47yhgrZt26oPP/wwzc+92bdvn3rggQc8pyZNmigZZghjdI/ZC6Z7y2GCEwYCEDhHAgipBuZOxoiYBZn27dtbLzeOESrxbNOmjQ3jWmRJkYifmA0bNrheatasWfZ+xowZ1p5peeKJJ+w47GuvvaZatGiRGSTr/uTJkzZOly5dvDHfRYsWqU8//VQtXLgw7QshKzIOEIBAKAIIqcbkimKQEApNeTU2xo3j9mhbtWplgmRdZU2pGBHeU6dOWf/hw4d7Iivp6/FP6+5avvjiC/WnP/3Jc7rhhhvU7bff7noH2s0EmASQIQH5opC1otddd5267LLLVMOGDdWtt96qdu7cGZgGHhCAQG4CCKnmI6/MxjRo0MBYs66yON8Ymc03Zs+ePcaq6tevb+2ZFndBv570sd4ipLIJQAT5qquusu7GInndd9995lb98Y9/tPaqLNu2bUsLIsu8Mo2M8fbt21ctW7Ys04t7CEAgBAGEVEPSk34hUAUHcXuXwaFy+8irf506dXwDPfvss3ZcVZZRmZ6tb+AMx0whlTHcF198Ub399tvq0UcftaGl5ypLszAQgMC5E2Ad6bkzK2oMWeD//PPPe3nKgn539j9MQeQVfu7cuUrvqlJ6iVTaigQZRrjzzjvV1Vdf7SU1ffp0JWO011xzTZikCQMBCFQSoEeqQcjyJGP0mk9jzXmtXfssOncPfdjerRs/KCOZKHJf6fUW1cBea1AaUjbZWKDXvqaJqAkv4jxmzBhzq+bNm2ftWCAAgXAEzqpBuPBlGcqd/ZYDPoLMgQMHrFfLli197e54qw1Qadm/f79nk9n7XGOxJp4sb5IZdjH/+Z//6QmhCL35O336tAlq3cJ+EdiI2nLjjTfaW7Oe1jpggQAEqiSAkGpE7pijTPoEGdnuaYw7uy/LiozZvXu3sWZdjUi1a9cuyy/TQVYFuD3F3/72t15vVMZRzV/nzp1ttE8++cS6yzbQczEXXnihDe7W0TpigQAEchJgjFTjcfeXyw6jIOP6uT1SV9DWrVunLr744qwk3Jl9N3xWwEoHN3xQmCB301OV3unTTz/tLbWSff/uMIEb11365H6puGGwQwACwQQQUs2mW7dultDkyZOVzJJnjmHKuZ/mNbt3795pY5UiUsbIYSf/8i//Ym7t1d2xJOeTVmVEbGVmPZcRAfz3f/93L4icdyq9VjGyPlSM1EG2s8pOKhlOGDFihO9hKTIRZYzfl4Dx4woBCAQQKNV+/7gdfjB06FB7sIcW0zQsumeX0rPl1l8OMHGNHFKihcr66wOhXe+UHltNXXrppdZf7yhK85cbvfwopdd4ZrnncnAPSwk6tOSRRx6x+eqtqFnJ6f39aWX//PPPs8LgAAFDIG7PrSlXqa+yhrIkJm4Nopf+WMHR3zmpZ555JjV79uyUXg6Uuueee9L89IRUFrOnnnrKhhFR1Vs4U1999VVKTnq6/PLLrZ+eJc+K+9JLL1n/mTNnZvkHOYQRUjnJSupj/h5++OHU//7v/6a+/vrrlHxh6N1U1u+WW24Jygp3CHgE4vbcxqVZENLKlpBep57csaJihCfzGnQEnoirXuyeM74csad3D2W1vT7FycbLPKIvK7DjEEZIJbgeIrDpZ9bH3EvZ1q9f76SOFQLZBBDSbCbiwqy9VhIxspZUDmCWA55lvDHTyHpLWRx/8803Z3p5982aNVMff/yxevzxx9P25IunjE/K3nhZGC+//ZRpZK+7GAkn++jDGncc17VnxpeF9zK+K4vzM43k+dhjj6nFixerMJNgmfG5hwAEtH6ImpYCxNyvF3rZ/uiH/UuRfZV5yv52maWXBe0ymeQuuq8ysg4gy6jkR/Bkdl9mwt1F/37xZf2p7NOXQ0QKaY4fP650z1PpcV0ly57cZVyFzJe0y4NA3J/bUlFm1j6AvPn10ADvKp1FQN0lUlVFkB5tMYyINTPzxSBNHkkiwKt9klqbukIAAgUhgJAWBCuJQgACSSKAkCaptakrBCBQEAIIaUGwkigEIJAkAghpklqbukIAAgUhgJAWBCuJQgACSSKAkCaptakrBCBQEAIIaUGwkigEIJAkAghpklqbukIAAgUhgJAWBCuJQgACSSKAkCaptakrBCBQEAIIaUGwkigEIJAkAghpklqbukIAAgUhgJAWBCuJQgACSSKAkCaptakrBCBQEAIIaUGwkigEIJAkAghpklqbukIAAgUhgJAWBCuJQgACSSKAkCaptakrBCBQEAIIaUGwkigEIJAkAghpklqbukIAAgUhgJAWBCuJQgACSSKAkCaptakrBCBQEAIIaUGwkigEIJAkAghpklqbukIAAgUhgJAWBCuJQgACSSKAkCaptakrBCBQEAIIaUGwkigEIJAkAghpklqbukIAAgUhgJAWBCuJQgACSSKAkCaptakrBCBQEAIIaUGwkigEIJAkAghpklqbukIAAgUhgJAWBCuJQgACSSKAkCaptakrBCBQEAIIaUGwkigEIJAkAghpklqbukIAAgUhgJAWBCuJQgACSSKAkCaptakrBCBQEAIIaUGwkigEIJAkAnWTVNmwdd21a5dasmSJWrp0qWrUqJHq16+f6tWrl2rcuHHYJGy4nTt3qhUrVqgf//jH1q26liNHjnhlWrx4sTp69Kjq27ev6tOnj2rZsmWoJPNZr1AZEggCSSGQKpGZM29BSv7iZLQ4pe69996Ubnvfv0mTJoUq7okTJ1L//d//nbrtttu8dLp27RoqXq5AEydO9C2TlPXhhx9OHTt2LDB6vuoVmAEeiSEQx+c2DvBVqQoRtwY5cOBA6sorrwwUKyOuo0ePDkS2cOHC1GOPPZZq0qRJWjpRhfSRRx5JS8+Uxb1K2XWPNats+ahXVqI4JJZA3J7buDQEY6RajcRMmTJFzZkzx7O3bt1affHFF0r38tSePXvUq6++6rnLvwkTJqjVq1fbe7EcOnRI/eAHP1D9+/dXv//979XBgwfT/KPcyBCD7o3aJN544w21b98+79V+xowZSou25ydlf++992w4Y4lSL5MGVwhAoAoCpVL0OH2znTlzJtWzZ0/b61u+fHkWFvfVOrNXqscebVyNOzVgwIDUH//4R+sWpUfq9kb//Oc/Z5VrwYIFNp/evXunpC7GRK2XSYcrBAyBOD23pkxxuPJqr1th/vz5VowGDx7s2y66Z2rD6B5rWhjx69ChQ+rJJ59M6Qkq6yeiKn9hhFT3clPbtm2zccUiQmjSkKvu+ab5m5vLL7/chtMTW8Y5cr1sQlggUEkAIfX/KPBqrxVqy5Yt+v/3ZsiQIcaadm3evLkaNGiQ57Zjxw7vtd8EEL+NGzeqsWPHKt0rNM6hr+PGjVPdu3dXbdu2VR9++KGNJ6/wxgwdOjRw1cCNN95ogqnNmzdbe9R62YSwQAACOQkgpBrP1q1bLSQRsyDTvn176+XGsY7VtMyaNcvGlHFPY7Zv326sys3bOlZa2rRpY51c8XTLWIp62UJhgUCZE0BIdQO7guOKUmbbyySUMW4c41bd6/Dhw71JI0l/2LBhNhlXSHMJobuOdNOmTTa+W8ZS1MsWBAsEypwAC/J1A7uv0A0aNAhsclmcb4wsjs+XESG94447VJ06dbw/k+7+/fuNVeUql7tRwC1XqetlC48FAmVOACHVDayHj0vezBUVFVlliFquqPGzCoQDBCDgS4BXe18sOEIAAhAITwAh1axq1aplieklR9aey1K7duHRVadcMjxgTHXiF6NepnxcIVAuBAqvBjWAVIsWLWwp9+7da+2ZFr3d0jq5EzzWMc+WCy64wKYoO6yCjDuW2qpVKxssrvWyBcQCgTIhgJDqhuzYsaNtTjkhKci4azRzzYIHxT9Xd3fJk5wiFWSCZvfjWq+geuAOgZpKACHVLad3Jdn2W7NmjbVnWly/YvRIXSFduXJlZnHs/fr1663dXSYV13rZwmKBQJkQQEh1Q3br1s025+TJk5XfOKkcVLJo0SIvnOxecscibeQ8W2TJkxHDefPmqbVr12blcPr0afXXv/7VuuvtqNYe13rZAmKBQJkQQEh1Q3bq1EnJFkwxsqBdTkxyjSwjGj9+vHUaOXKktefLIq/ucopUphk1apR1+t3vfpe1VOudd97xyiyB9Pmn3jZTEyEO9TJl4QqBsiagRaIkJm6HH0yfPt0e/KEbPPXMM8+kZs+endJbNlP33HNPmp+ekArFTNKRv6oOLXnppZds+jNnzkxL2z0sRdIaMWJESsqqj/lLPfvsszae+GXGlYQKUa+0AnKTKAJxe27jAp/TnypbQk5aGjNmTJowGSF0r9OmTQvddiZeVUIqJ06ZsJlH9ElmU6dOtf4mXOb1iSeeSDtCzxSyEPUyaXNNHgGE1L/NebXXiiRG1ly+8MIL3mu9Ppv0e0fn/8CBA5U+bk/dfPPNjms4a926uTeQ3XrrrV5CckjzDTfckJWovLJL3lKGTCPjtW+++aZ67rnn0tbDmnCFrJfJgysEkk6gluhrKSDM/Xqhl+2Pfti/FNlXmafsWZdZehHBHj16eNcqI0UIIPvi69evrxo2bJgzlVOnTqlVq1YpmWSSySR3/3/OiJWexa5XmDIRpuYQiPtzWyqSubtKpSpVDPI1vx5arKI0a9YsVFYi7NU589QkXux6mXy5QqCcCfBqX86tS90gAIGiEEBIi4KZTCAAgXImgJCWc+tSNwhAoCgEENKiYCYTCECgnAkgpOXcutQNAhAoCgGEtCiYyQQCEChnAghpObcudYMABIpCACEtCmYygQAEypkAQlrOrUvdIACBohBASIuCmUwgAIFyJoCQlnPrUjcIQKAoBBDSomAmEwhAoJwJIKTl3LrUDQIQKAoBhLQomMkEAhAoZwIIaTm3LnWDAASKQgAhLQpmMoEABMqZAEJazq1L3SAAgaIQQEiLgplMIACBciaAkJZz61I3CECgKAQQ0qJgJhMIQKCcCSCk5dy61A0CECgKAYS0KJjJBAIQKGcCCGk5ty51gwAEikIAIS0KZjKBAATKmQBCWs6tS90gAIGiEEBIi4KZTCAAgXImgJCWc+tSNwhAoCgEENKiYCYTCECgnAkgpOXcutQNAhAoCgGEtCiYyQQCEChnAghpObcudYMABIpCACEtCmYygQAEypkAQlrOrUvdIACBohBASIuCmUwgAIFyJoCQlnPrUjcIQKAoBBDSomAmEwhAoJwJIKTl3LrUDQIQKAoBhLQomMkEAhAoZwIIaTm3LnWDAASKQqBuUXKpYZns2rVLLVmyRC1dulQ1atRI9evXT/Xq1Us1btz4nGuyc+dOtWLFCvXjH//4nOPminDmzBn1j3/8Q3Xu3Fm1a9cuV1C1d+9etXr16pxhjGf//v1VRUWFueUKAQiEIICQOpCOHTumfvGLX6i//OUvjutZ66RJk9S//du/nXUIsJ08eVJ98sknXjrvv/++6tq1q1qzZk1A6HNzXr9+vXrrrbfUK6+8ojZt2qTefvttNWzYsJyJ/O1vf1P33XdfzjDGU75A+vTpY265QgACIQggpJWQDh48qH7+85+rOXPmBGJ78MEH1fLly9Uf/vAH3zCLFi3yRO5Pf/qTkvTyZQ4dOqREDF9//XX12WefnXOyW7duPec4RIAABMITQEgrWU2ZMsWKaOvWrdXUqVPVFVdcoY4cOaLee+899dBDD3khJ0yYoEaOHKm6d+9uKYvQ/fSnP1Xz58+3bvmyiHg+8MADkZLbsmWLjT9+/HjVtGlTe59p6dChQ6YT9xCAQBUEEFINKJVKpfUyP//8c3XJJZd46OrXr6+kJyqv64888ojn9vLLL6eFP378eJqIDhgwwBO/X/7yl1Xgr9pbxmldI2XZvn2710N13XPZN27caL1/9atfqXr16tl7LBCAQHQCzNprhgsWLFCrVq3yaA4ePNiKqIv3rrvusrcyRuma2rVrK+nJPfnkk94E1TfffOP1Wt0wVdllDFUEMtM0aNBADR06VL377rvq8OHD6tVXX1VXX311ZrCc90ZIpaeNiOZEhScEqkWAHqnG5r76DhkyxBdk8+bN1aBBg9Ts2bPVjh07lExMiciJET8jVr6Rq3AcN26c+o//+A8vlIyF3njjjTbGc889Z+3VtciklBiZ9MJAAAL5J0CPVDN1J2Patm0bSLl9+/bWz41jHatpmTVrlo05Y8YMa8+HRYYkRPjFdOnSxRvzlUmxTz/9VC1cuND7QshHPqQBgSQTQEh167ui2KZNm8DPg7waG+PGMW7VvQ4fPlw1adJESfpVLWU61zyMiEq8d955R8kXhawVve6669Rll12mGjZsqG699VYl610xEIBA9QggpJrbvn37LD3zum4dHIsszjdGZvPzZURIZROADDFcddVV+UrWS2fbtm1p6fkty5o2bZrq27evWrZsWVpYbiAAgXAEEFLNSWbtS21kN1GdOnXyXoxMIb322mvViy++6C3kf/TRR21+0nMdNWqUvccCAQiEJ8BkU3hWNTKkvMLPnTtXffnll+r6669PW5Egwwh33nmnXQUwffp0JWO011xzTY2sK4WGQKkI0CPV5GvVqmX5yx72MEaWPNUEU7duXW9jwejRo9NE1JR94MCBasyYMeZWzZs3z9qxQAAC4QjUDDUIV5dqh2rRooWNKwd8BJkDBw5Yr5YtW1p7Tbe4y63MetqaXifKD4FiEkBINe2OHTta5jLpE2Q2b95svXLN7ttANcRy4YUX2ulupjQAAAXASURBVJK6dbSOWCAAgZwEGCPVeNz95blOaXL9akKPVIYpnn76aXXq1CnVo0ePwBOg3KVP7pdKzk8OnhCAgCVAj1Sj6NatmwUyefJk5TdOKud5ykJ2Mb179y7IDLstRJ4sMo4r21mff/55JXvsRVD9jExEGXPxxRcbK1cIQCAkAYRUg+rUqZO3n12YyXZKOQnKNbI8Sk5NMkZOf8q3kV6hnCKVb2O2vMr6Ub/j/2TZ029+8xub7ZVXXmntWCAAgXAEENJKTu4ayhEjRqixY8cqOQVq5syZ3iuxHOpszN13322seblOnDjR29Uku5uqc95orkK4J1DJ7LwcXC09UDlY5c033/RO/zeL9G+55Rb1k5/8JFdy+EEAAj4EGCOthPKzn/3MWwYkB4iIeeqppyp90i+yC6hZs2bpjhHvJE1jPvroIyUnUOXLyHGAcor+v/7rv3pJysn68pdp5EATOWsVAwEInDsBeqSVzGQt6QsvvOC91vfs2TOLpKy3lIObb7755iy/qhxkLWcuI3vdxUiP9IYbbsgV1PNz0wuzG0oW3sv4rizOzzSS52OPPaYWL17s/f5Tpj/3EIBA1QRq6fG/kuyPnPv1Qq90P/ph/6pLWYIQspdeZulFtGTG2xWvQhRH9vvLIdJyiEghjRxCLb/7JGebyrKnclrGVUhupP09gbg/t6Vqp9xdpVKVKgb5ml8PLVZR8j1cEFRuEWtm5oPo4A6B6hHg1b563IgFAQhAwBJASC0KLBCAAASqRwAhrR43YkEAAhCwBBBSiwILBCAAgeoRKJ2QVh5dV6JFA9WjRSwIJJiAfVadYycTjCOt6iUT0orK31Y/fvxEWoG4gQAE4knAPKvm2Y1nKUtTqpIJ6XmNv18veeBg/veXlwYluUKgvAmYZ9U8u+Vd23OrXcmEtFnT872S7twdfJDyuVWF0BCAQCEJmGfVPLuFzKumpV0yIW3V8gIlP/h26NBhtWPn7prGjfJCIFEE5BmVZ1WeWXl2MekESiakUowO7b//Dfl1Gzap/fsPppeMOwhAIBYE5NmUZ1SMeWZjUbAYFaKkQirfbG1af//bRyu+XUvPNEYfDIoCASEgPVF5NsXIs0pv1EOR9a9kh5a4JVn/3Wa1fcf3v5V03nmNVasWzdX5Tc7Th3hUpP3CpxsHOwQgkH8CssRJZudlYknGROV1XoyIaJdOZ3/bK/851+wUYyGkgnDnrj1q05bt6sQJlkPV7I8UpS8nAjImKq/z9ERzt2pshNQUUwR13/4D6tDho+rEyZNKleaUP1McrhBIFgG92F7WicoSJ5mdR0DDNX/shDRcsQkFAQhAID4ESjrZFB8MlAQCEIBA9QkgpNVnR0wIQAACHgGElA8CBCAAgYgEENKIAIkOAQhAACHlMwABCEAgIgGENCJAokMAAhBASPkMQAACEIhIACGNCJDoEIAABBBSPgMQgAAEIhJASCMCJDoEIAABhJTPAAQgAIGIBBDSiACJDgEIQAAh5TMAAQhAICIBhDQiQKJDAAIQQEj5DEAAAhCISAAhjQiQ6BCAAAQQUj4DEIAABCISQEgjAiQ6BCAAAYSUzwAEIACBiAQQ0ogAiQ4BCEAAIeUzAAEIQCAiAYQ0IkCiQwACEEBI+QxAAAIQiEgAIY0IkOgQgAAEEFI+AxCAAAQiEkBIIwIkOgQgAAGElM8ABCAAgYgEENKIAIkOAQhAACHlMwABCEAgIgGENCJAokMAAhBASPkMQAACEIhIACGNCJDoEIAABBBSPgMQgAAEIhJASCMCJDoEIAABhJTPAAQgAIGIBBDSiACJDgEIQAAh5TMAAQhAICIBhDQiQKJDAAIQQEj5DEAAAhCISAAhjQiQ6BCAAAQQUj4DEIAABCISQEgjAiQ6BCAAAYSUzwAEIACBiAQQ0ogAiQ4BCEAAIeUzAAEIQCAiAYQ0IkCiQwACEEBI+QxAAAIQiEjg/wHEHUGoNJte9gAAAABJRU5ErkJggg==;" vertex="1" parent="1">
          <mxGeometry x="242" y="480" width="165.81" height="260" as="geometry" />
        </mxCell>
        <mxCell id="yjNWj8RgQ7WTDaPsMSxr-4" value="&lt;font style=&quot;font-size: 20px;&quot;&gt;仕様の前情報&lt;/font&gt;" style="text;html=1;align=left;verticalAlign=middle;whiteSpace=wrap;rounded=0;" vertex="1" parent="1">
          <mxGeometry x="40" y="160" width="130" height="30" as="geometry" />
        </mxCell>
        <mxCell id="yjNWj8RgQ7WTDaPsMSxr-7" value="&lt;font style=&quot;font-size: 16px;&quot;&gt;デフォルト時&lt;/font&gt;" style="text;html=1;align=left;verticalAlign=middle;whiteSpace=wrap;rounded=0;" vertex="1" parent="1">
          <mxGeometry x="40" y="440" width="130" height="30" as="geometry" />
        </mxCell>
        <mxCell id="yjNWj8RgQ7WTDaPsMSxr-8" value="&lt;span style=&quot;font-size: 16px;&quot;&gt;フォーカス時&lt;/span&gt;" style="text;html=1;align=left;verticalAlign=middle;whiteSpace=wrap;rounded=0;" vertex="1" parent="1">
          <mxGeometry x="242" y="440" width="130" height="30" as="geometry" />
        </mxCell>
        <mxCell id="yjNWj8RgQ7WTDaPsMSxr-9" value="&lt;span style=&quot;font-size: 16px;&quot;&gt;値選択後&lt;/span&gt;" style="text;html=1;align=left;verticalAlign=middle;whiteSpace=wrap;rounded=0;" vertex="1" parent="1">
          <mxGeometry x="440" y="440" width="130" height="30" as="geometry" />
        </mxCell>
      </root>
    </mxGraphModel>
  </diagram>
</mxfile>
